<svg width="203" height="64" viewBox="0 0 203 64" fill="none" xmlns="http://www.w3.org/2000/svg">
<path fill-rule="evenodd" clip-rule="evenodd" d="M20.7472 21.2394C20.5362 20.8175 20.8176 20.1845 20.8176 20.1845C21.1692 20.0438 21.7318 20.1142 21.9428 20.5361C22.1538 21.0284 21.9428 21.3801 21.3802 21.7317C21.3802 21.7317 21.0989 21.5911 20.7472 21.2394Z" fill="white"/>
<path fill-rule="evenodd" clip-rule="evenodd" d="M36.3604 47.9649L33.1252 50.5671V23.9121H36.3604V47.9649Z" fill="white"/>
<path fill-rule="evenodd" clip-rule="evenodd" d="M38.4703 45.644V23.9121H41.1429V40.5099C40.6506 42.0572 39.8066 43.7451 38.4703 45.644Z" fill="white"/>
<path fill-rule="evenodd" clip-rule="evenodd" d="M27.8506 48.1758L31.0858 50.778V23.9121H27.8506V48.1758Z" fill="white"/>
<path fill-rule="evenodd" clip-rule="evenodd" d="M26.022 46.4176V23.9121H23.1385V41.6352C23.2088 42.8308 25.3187 45.855 26.022 46.4176Z" fill="white"/>
<path d="M32 54.2239C19.7626 54.2239 9.77582 44.2371 9.77582 31.9998C9.77582 19.6921 19.6923 9.77558 32 9.77558C44.2374 9.77558 54.2242 19.7624 54.2242 31.9998C54.2242 44.2371 44.2374 54.2239 32 54.2239V54.9976C44.6594 54.9976 54.9978 44.6591 54.9978 31.9998C54.9978 19.3404 44.6594 9.00195 32 9.00195C19.3407 9.00195 9.0022 19.3404 9.0022 31.9998C9.0022 44.6591 19.3407 54.9976 32 54.9976V54.2239Z" fill="white"/>
<path d="M32 62.9451C14.9099 62.9451 1.05495 49.0901 1.05495 32C1.05495 14.9099 14.9099 1.05495 32 1.05495C49.0901 1.05495 62.9451 14.9099 62.9451 32C62.9451 49.0198 49.0198 62.9451 32 62.9451V63.9297C49.6528 63.9297 64 49.5824 64 31.9297C63.9297 14.3473 49.5824 0 32 0C14.3473 0 0 14.3473 0 32C0 49.6527 14.3473 64 32 64V62.9451Z" fill="white"/>
<path fill-rule="evenodd" clip-rule="evenodd" d="M5.6264 41.0021C6.3297 41.7054 6.68135 42.1274 7.033 43.0417C7.38465 43.8153 7.45498 44.3779 7.52531 45.2219L9.07256 44.5186C8.50992 43.8856 8.15827 43.4637 7.80663 42.69C7.38465 41.7758 7.24399 41.2131 7.17366 40.2988L5.6264 41.0021Z" fill="white"/>
<path fill-rule="evenodd" clip-rule="evenodd" d="M5.48571 44.5189C6.189 43.8156 6.61098 43.464 7.52527 43.1123C8.2989 42.7607 8.86153 42.6903 9.70549 42.62L9.00219 41.0728C8.36923 41.6354 7.94725 41.987 7.17362 42.3387C6.32966 42.6903 5.76703 42.831 4.78241 42.9013L5.48571 44.5189Z" fill="white"/>
<path fill-rule="evenodd" clip-rule="evenodd" d="M58.3033 41.0021C57.6 41.7054 57.2483 42.1274 56.8967 43.0417C56.545 43.8153 56.4747 44.3779 56.4044 45.2219L54.7868 44.5186C55.3494 43.8856 55.7011 43.4637 56.0527 42.69C56.4044 41.7758 56.6154 41.2131 56.6154 40.2988L58.3033 41.0021Z" fill="white"/>
<path fill-rule="evenodd" clip-rule="evenodd" d="M58.3737 44.5189C57.6704 43.8156 57.2484 43.464 56.3341 43.1123C55.5605 42.7607 54.9978 42.6903 54.1539 42.62L54.8572 41.0728C55.4901 41.6354 55.9121 41.987 56.6857 42.3387C57.6 42.7607 58.1627 42.831 59.077 42.9717L58.3737 44.5189Z" fill="white"/>
<path fill-rule="evenodd" clip-rule="evenodd" d="M19.4813 54.1536C19.9033 53.9426 20.1143 54.1536 20.1846 54.013C20.255 53.9426 20.1846 53.8723 20.044 53.802C19.9033 53.6613 19.6923 53.591 19.5517 53.4503C19.411 53.3097 19.2703 53.169 19.1297 53.0283C19.0594 52.958 18.9187 52.8174 18.8484 52.958C18.7077 53.169 19.411 53.38 18.989 53.9426C18.9187 54.013 18.778 54.2239 18.2857 54.5053L16.1758 55.7009C16.1055 55.7009 16.0352 55.7712 16.0352 55.7712C15.9649 55.7712 16.0352 55.6305 16.0352 55.5602L16.8088 53.169C16.9495 52.6767 17.0901 52.3954 17.2308 52.1844C17.4418 51.9734 17.6528 52.2547 17.7934 52.1141C17.8638 52.0437 17.8638 51.9734 17.6528 51.8327C17.5824 51.7624 17.3714 51.6921 17.0198 51.4108C16.8088 51.2701 16.6681 51.0591 16.4572 50.9184C16.3868 50.8481 16.2462 50.6371 16.1055 50.7778C16.1055 50.8481 16.1055 50.9184 16.1055 50.9184C16.3165 51.1294 16.3165 51.2701 16.2462 51.5514L14.9802 55.9822C14.9099 56.3338 14.9099 56.4042 14.9802 56.4745C15.0506 56.5448 15.1209 56.5448 15.2616 56.4042L19.4813 54.1536Z" fill="white"/>
<path fill-rule="evenodd" clip-rule="evenodd" d="M25.0374 56.4045C25.1781 55.8419 25.6 56.2639 25.6704 55.9826C25.6704 55.9122 25.6704 55.9122 25.5297 55.8419C25.4594 55.8419 25.3187 55.8419 24.7561 55.7012C24.4748 55.6309 24.1231 55.4903 23.8418 55.4199C23.7011 55.4199 23.6308 55.4199 23.5605 55.4903C23.4901 55.7716 24.3341 55.7716 24.1934 56.3342L23.3495 59.71C23.1385 60.554 22.7165 60.0617 22.6462 60.4133C22.6462 60.4837 22.6462 60.4837 22.7868 60.554C23.1385 60.6243 23.4198 60.6947 23.6308 60.765C23.9824 60.8353 24.3341 60.976 25.389 61.2573C25.9517 61.3979 26.5143 60.9056 26.655 60.343C26.655 60.2023 26.655 60.2023 26.5846 60.2023C26.3033 60.132 26.1627 61.1166 24.4748 60.6947C23.9824 60.554 24.0528 60.343 24.1934 59.8507L25.0374 56.4045Z" fill="white"/>
<path fill-rule="evenodd" clip-rule="evenodd" d="M29.0462 57.2483C29.1165 56.756 29.1165 56.756 29.9605 56.8263C31.2967 56.8966 30.7341 57.7406 31.0154 57.7406C31.1561 57.7406 31.1561 57.5296 31.1561 57.3889V56.6856C31.1561 56.6153 31.0858 56.545 31.0154 56.545C30.3825 56.4746 29.8901 56.4746 29.3978 56.4746C28.3429 56.4043 27.8506 56.334 27.5693 56.334C27.4989 56.334 27.4286 56.4043 27.4286 56.4746C27.4286 56.756 28.2022 56.6153 28.1319 57.2483L27.9209 60.6944C27.8506 61.6087 27.3583 61.1867 27.3583 61.468C27.3583 61.5384 27.4286 61.5384 27.4989 61.5384C27.8506 61.5384 28.2022 61.5384 28.4132 61.5384C28.7649 61.5384 29.1868 61.6087 30.2418 61.679C30.8044 61.7494 31.2967 61.1164 31.2967 60.5538C31.2967 60.4131 31.2264 60.4131 31.2264 60.4131C30.9451 60.4131 31.0154 61.3274 29.2572 61.2571C28.7649 61.1867 28.8352 60.9757 28.8352 60.4834L28.9055 59.5691C28.9055 59.1472 28.9055 59.0768 29.2572 59.0768H29.7495C30.4528 59.1472 30.2418 59.9208 30.4528 59.9208C30.5934 59.9208 30.5934 59.6395 30.5934 59.5691L30.6638 58.2329C30.6638 58.0219 30.5934 58.0219 30.5231 58.0219C30.3825 58.0219 30.3121 58.6549 29.7495 58.6549H29.3275C29.0462 58.6549 29.0462 58.5845 29.0462 58.2329V57.2483Z" fill="white"/>
<path fill-rule="evenodd" clip-rule="evenodd" d="M32.7736 60.8351C32.844 61.6087 32.1407 61.5384 32.211 61.8197C32.211 61.9604 32.3517 61.89 32.422 61.89C32.633 61.89 32.7736 61.8197 32.9846 61.8197C33.1956 61.8197 33.4769 61.8197 33.8286 61.7494C33.8989 61.7494 34.1099 61.7494 34.1099 61.6087C34.1099 61.2571 33.2659 61.8197 33.1253 60.4131L32.9143 57.9516C32.9143 57.8813 32.9143 57.8109 32.9846 57.8109C32.9846 57.8109 33.055 57.8109 33.1253 57.8813L36.7824 61.3977C36.8528 61.4681 36.8528 61.4681 36.9934 61.4681C37.0637 61.4681 37.0637 61.3977 37.0637 61.2571L36.7121 57.178C36.6418 56.4043 37.2747 56.545 37.2044 56.334C37.2044 56.334 37.2044 56.2637 37.0637 56.2637C36.9934 56.2637 36.7824 56.334 36.2901 56.334C35.7978 56.4043 35.5868 56.334 35.5165 56.4043C35.4462 56.4043 35.3758 56.4747 35.4462 56.545C35.4462 56.756 36.2901 56.6153 36.3604 57.2483L36.5714 59.7098C36.5714 59.9208 36.5714 59.9911 36.5714 59.9911C36.5011 59.9911 36.4308 59.9208 36.3604 59.8505L33.2659 56.8966C33.1253 56.756 33.1956 56.6856 32.9846 56.756C32.633 56.756 32.422 56.8263 32.2813 56.8263C32.1407 56.8263 32 56.8263 31.8593 56.8263C31.789 56.8263 31.7187 56.8966 31.7187 56.967C31.7187 57.3186 32.4923 56.756 32.633 58.1626L32.7736 60.8351Z" fill="white"/>
<path fill-rule="evenodd" clip-rule="evenodd" d="M41.4242 55.209C41.4242 55.1387 41.3539 55.209 41.3539 55.209C41.2835 55.209 41.3539 55.4903 41.2132 55.4903C41.0022 55.5606 40.3692 55.2793 39.5956 55.5606C37.9077 56.053 37.6967 57.8112 38.0484 59.0068C38.189 59.5695 39.033 61.2574 41.0022 60.6947C42.4088 60.2728 42.8308 59.0068 42.6901 58.7255C42.6901 58.6552 42.6198 58.6552 42.5495 58.6552C42.3385 58.7255 42.1978 59.7804 41.1429 60.0618C39.8769 60.4837 38.8923 59.2178 38.611 58.2332C38.3297 57.3189 38.5407 56.1233 39.5253 55.842C40.2989 55.631 41.0725 56.053 41.6352 56.6156C41.7055 56.6859 41.7758 56.8266 41.9165 56.8266C42.0572 56.7563 41.9868 56.6156 41.9165 56.5453L41.4242 55.209Z" fill="white"/>
<path fill-rule="evenodd" clip-rule="evenodd" d="M43.4638 54.7165C43.1121 54.0836 43.7451 54.0836 43.6044 53.8726C43.5341 53.8022 43.5341 53.8022 43.3231 53.8726C42.9714 54.0836 42.7605 54.2242 42.5495 54.2945C42.3385 54.4352 42.0572 54.5055 41.8462 54.6462C41.7758 54.6462 41.6352 54.7165 41.7055 54.8572C41.8462 55.0682 42.4088 54.5055 42.7605 55.1385L44.4484 58.233C44.8 58.866 44.2374 58.9363 44.378 59.1473C44.378 59.1473 44.4484 59.2176 44.5187 59.2176C44.6594 59.1473 44.9407 58.9363 45.222 58.7956C45.7143 58.5143 45.9253 58.444 46.2066 58.3033C46.3473 58.233 46.4176 58.1627 46.3473 58.0924C46.2066 57.8814 45.7143 58.5847 45.2923 57.7407L43.4638 54.7165Z" fill="white"/>
<path fill-rule="evenodd" clip-rule="evenodd" d="M3.51648 28.9757C3.0945 28.7647 3.16483 28.5537 3.02417 28.4834C2.88351 28.4834 2.88351 28.5537 2.88351 28.6944C2.88351 28.835 2.88351 29.046 2.88351 29.1867C2.88351 29.3274 2.81318 29.5383 2.81318 29.679C2.81318 29.7493 2.74285 29.89 2.88351 29.9603C3.16483 29.9603 2.95384 29.3977 3.58681 29.3977C3.72747 29.3977 3.93846 29.468 4.43077 29.679L6.61099 30.734C6.68132 30.734 6.75165 30.8043 6.75165 30.8043C6.75165 30.8746 6.61099 30.8746 6.61099 30.8746L4.14945 31.4373C3.65714 31.5076 3.30549 31.5779 3.0945 31.5779C2.81318 31.5779 2.95384 31.2263 2.74285 31.1559C2.60219 31.1559 2.60219 31.1559 2.60219 31.3669C2.60219 31.4373 2.60219 31.6482 2.60219 31.9999C2.60219 32.2109 2.53186 32.4219 2.53186 32.5625C2.53186 32.6329 2.46154 32.8438 2.60219 32.8438C2.67252 32.8438 2.67252 32.7735 2.74285 32.7735C2.81318 32.5625 2.95384 32.4922 3.23516 32.4219L7.66593 31.3669C8.01758 31.2966 8.08791 31.2263 8.08791 31.1559C8.08791 31.0856 8.08791 31.0856 7.87692 30.9449L3.51648 28.9757Z" fill="white"/>
<path fill-rule="evenodd" clip-rule="evenodd" d="M6.96264 28.4836C7.66594 28.6242 7.45495 29.1869 7.73627 29.2572C7.87692 29.2572 7.87692 29.1869 7.87692 29.1166C7.94725 28.9759 7.94725 28.7649 7.94725 28.6242C8.01758 28.4133 8.08791 28.2023 8.15824 27.9913C8.15824 27.921 8.22857 27.7803 8.08791 27.7803C7.73627 27.71 8.08791 28.5539 6.68132 28.2023L4.21978 27.6396C4.14945 27.6396 4.07912 27.5693 4.07912 27.5693C4.07912 27.5693 4.14945 27.499 4.21978 27.499L8.58022 25.6001C8.65055 25.6001 8.72088 25.5297 8.72088 25.4594C8.72088 25.3891 8.65055 25.3891 8.50989 25.3188L4.5011 24.4045C3.72747 24.2638 4.00879 23.7715 3.7978 23.7012C3.7978 23.7012 3.72747 23.7012 3.65714 23.7715C3.65714 23.8418 3.65714 24.0528 3.51649 24.4045C3.44616 24.8264 3.37583 24.9671 3.3055 25.0374C3.3055 25.1078 3.37583 25.1781 3.37583 25.1781C3.58681 25.2484 3.65714 24.4748 4.29011 24.6858L6.68132 25.2484C6.89231 25.3188 6.96264 25.3188 6.96264 25.3188C6.96264 25.3891 6.82198 25.3891 6.75165 25.4594L3.09451 27.0067C2.95385 27.077 2.88352 27.0067 2.88352 27.2177C2.81319 27.499 2.81319 27.71 2.74286 27.8506C2.81319 27.921 2.81319 27.9913 2.74286 28.1319C2.74286 28.2023 2.81319 28.2726 2.81319 28.2726C3.16484 28.3429 2.81319 27.5693 4.21978 27.921L6.96264 28.4836Z" fill="white"/>
<path fill-rule="evenodd" clip-rule="evenodd" d="M5.06374 22.3649C4.43077 22.1539 4.78242 21.8023 4.57143 21.7319C4.5011 21.7319 4.43077 21.7319 4.43077 21.8726C4.36044 22.2242 4.29011 22.4352 4.21978 22.5759C4.14945 22.7869 4.07912 22.9979 4.00879 23.2089C4.00879 23.2792 3.93846 23.4198 4.07912 23.4198C4.29011 23.4902 4.36044 22.7869 4.99341 22.9979L8.36923 24.1231C9.0022 24.3341 8.72088 24.6858 8.93187 24.7561C9.0022 24.7561 9.0022 24.7561 9.0022 24.6858C9.07253 24.5451 9.07253 24.2638 9.21319 24.0528C9.35385 23.6308 9.42418 23.4198 9.49451 23.2089C9.56484 23.0682 9.49451 22.9979 9.42418 22.9979C9.21319 22.9275 9.35385 23.6308 8.43956 23.3495L5.06374 22.3649Z" fill="white"/>
<path fill-rule="evenodd" clip-rule="evenodd" d="M6.75163 18.1453C6.39998 17.7936 6.54064 17.653 6.39998 17.5826C6.25932 17.5123 6.25932 17.653 6.18899 17.7233C6.11866 17.864 6.04833 18.0046 6.04833 18.2156C5.978 18.3563 5.90767 18.4969 5.83734 18.6376C5.83734 18.7079 5.69668 18.8486 5.83734 18.9189C6.04833 19.0596 6.04833 18.3563 6.6813 18.6376C6.82196 18.7079 7.03295 18.7782 7.3846 19.1299L9.07251 20.7475C9.14284 20.8178 9.21317 20.8178 9.21317 20.8881H9.07251L6.61097 20.6068C6.11866 20.5365 5.76701 20.4662 5.62635 20.3958C5.34504 20.2552 5.55603 19.9739 5.41537 19.9035C5.27471 19.8332 5.27471 19.9035 5.20438 20.0442C5.06372 20.2552 5.06372 20.3958 4.92306 20.7475C4.85273 20.9585 4.71207 21.0991 4.64174 21.3101C4.64174 21.3804 4.50108 21.5211 4.64174 21.5914C4.71207 21.5914 4.7824 21.5914 4.7824 21.5211C4.92306 21.3101 5.06372 21.3101 5.34504 21.3101L9.84614 21.7321C10.1978 21.7321 10.2681 21.7321 10.2681 21.6618C10.2681 21.5914 10.2681 21.5914 10.1275 21.4508L6.75163 18.1453Z" fill="white"/>
<path fill-rule="evenodd" clip-rule="evenodd" d="M7.94724 16.668C7.52527 16.3866 7.52527 16.3866 7.94724 15.7537C8.58021 14.7691 9.00219 15.6833 9.21318 15.402C9.28351 15.2614 9.07252 15.191 9.00219 15.1207L8.36922 14.7691C8.29889 14.6987 8.22856 14.6987 8.15823 14.7691C7.87691 15.191 7.66593 15.5427 7.45494 15.8943C6.96263 16.668 6.68131 16.9493 6.61098 17.1603C6.54065 17.2306 6.61098 17.3009 6.68131 17.3713C6.82197 17.5822 7.03296 16.8789 7.5956 17.2306L10.4791 19.1295C11.2527 19.6218 10.6198 19.7625 10.9714 19.9734C11.0418 19.9734 11.0417 19.9734 11.1121 19.9031C11.3231 19.6218 11.3934 19.4108 11.5341 19.2701C11.6747 18.9888 11.8857 18.7075 12.378 18.0042C12.6593 17.5822 12.3077 16.9493 11.8154 16.668C11.6747 16.5976 11.6747 16.5976 11.6747 16.5976C11.5341 16.8086 12.378 17.2306 11.6044 18.4965C11.3934 18.8482 11.1824 18.7075 10.7604 18.4262L9.9868 17.9339C9.63516 17.7229 9.56483 17.6526 9.70549 17.4416L9.91648 17.0899C10.2681 16.5976 10.8308 17.1603 10.9011 16.9493C10.9714 16.8086 10.7604 16.7383 10.6901 16.668L9.56483 15.9647C9.42417 15.8943 9.35384 15.8943 9.35384 15.9647C9.28351 16.035 9.84615 16.457 9.56483 16.8789L9.35384 17.1603C9.21318 17.3713 9.14285 17.3713 8.93186 17.1603L7.94724 16.668Z" fill="white"/>
<path fill-rule="evenodd" clip-rule="evenodd" d="M15.3319 13.7846C15.4726 13.9253 15.4726 13.9253 15.6132 13.855C15.9649 13.7143 16.2462 13.644 16.5275 13.433C17.0901 12.9407 17.0901 12.0967 16.4572 11.3231C15.8242 10.6198 15.3319 10.6198 14.6286 10.7605C13.7143 10.9715 13.433 11.0418 13.1517 10.6901C12.8 10.3385 12.8704 9.91652 13.1517 9.70553C13.9253 9.07256 14.8396 10.0572 14.9802 9.98685C15.0506 9.91652 15.0506 9.84619 14.9099 9.70553L14.2066 9.00223C14.066 8.86157 14.066 8.79125 13.9956 8.86158C13.9253 8.9319 13.9253 9.07256 13.855 9.14289C13.7143 9.28355 13.3627 9.21322 13.011 9.49454C12.4484 9.91652 12.5187 10.6901 13.0813 11.3231C13.5737 11.8857 13.9956 11.8857 14.5583 11.8154C15.6132 11.6044 15.9649 11.4638 16.3868 11.8857C16.7385 12.3077 16.7385 12.8 16.3868 13.1517C15.8945 13.5737 15.1912 13.2923 14.5583 12.8704C14.4879 12.8 14.4176 12.8 14.3473 12.8C14.2066 12.8704 14.4176 13.011 14.4879 13.0814L15.3319 13.7846Z" fill="white"/>
<path fill-rule="evenodd" clip-rule="evenodd" d="M16.1055 8.22853C15.6835 7.66589 16.2461 7.59556 16.1055 7.38458C16.0352 7.31425 16.0352 7.31425 15.8945 7.45491C15.6132 7.66589 15.4725 7.80655 15.2615 7.94721C15.1209 8.08787 14.9099 8.1582 14.6989 8.29886C14.6286 8.29886 14.5582 8.36919 14.6286 8.50985C14.7692 8.72084 15.1912 8.1582 15.6132 8.72084L17.6527 11.6044C18.0747 12.167 17.5824 12.2373 17.7231 12.4483L17.7934 12.5186C17.9341 12.4483 18.145 12.2373 18.2857 12.0967C18.6373 11.8154 18.8483 11.745 19.0593 11.6044C19.2 11.534 19.2 11.4637 19.1297 11.3934C18.989 11.1824 18.6373 11.8857 18.145 11.1121L16.1055 8.22853Z" fill="white"/>
<path fill-rule="evenodd" clip-rule="evenodd" d="M36.5011 3.7976C36.5715 3.44596 36.7121 3.37563 36.9231 3.37563C37.8374 3.51629 37.6967 4.57123 37.6264 4.78222C37.5561 4.99321 37.4154 5.76683 36.7121 5.62617C36.5715 5.62617 36.5011 5.55585 36.4308 5.55585C36.3605 5.55585 36.3605 5.62617 36.3605 5.6965C36.3605 5.6965 36.3605 5.90749 36.9231 5.97782C37.6264 6.11848 38.2594 5.62617 38.4 4.71189C38.611 3.65694 37.9077 3.16464 37.2044 3.02398C36.7824 2.95365 36.3605 2.88332 36.2901 2.88332C35.8682 2.88332 35.5165 2.81299 35.5165 2.81299C35.3759 2.81299 35.3055 2.88332 35.3055 2.95365C35.2352 3.23497 35.9385 3.02398 35.7978 3.7976L35.2352 6.96244C35.0945 7.87672 34.6726 7.59541 34.6022 7.80639C34.6022 7.94705 34.6726 7.94705 34.6726 7.94705C34.7429 7.94705 35.1649 8.01738 35.3759 8.01738C35.5165 8.01738 35.7275 8.08771 36.1495 8.15804C36.2198 8.15804 36.2901 8.22837 36.2901 8.08771C36.3605 7.80639 35.7275 8.01738 35.8682 7.1031L36.5011 3.7976Z" fill="white"/>
<path fill-rule="evenodd" clip-rule="evenodd" d="M41.4242 4.14927C40.088 3.72729 38.9627 4.57125 38.4 6.1185C37.9077 7.52509 38.3297 8.7207 39.455 9.14268C41.2132 9.77564 42.1275 8.15806 42.4792 7.17345C42.9715 5.62619 42.4792 4.50092 41.4242 4.14927ZM41.7055 7.17345C41.2836 8.29872 40.6506 9.14268 39.7363 8.86136C38.7517 8.50971 38.8923 6.96246 39.244 5.97784C39.5956 4.99323 40.2286 4.07894 41.1429 4.43059C41.8462 4.57125 42.2682 5.62619 41.7055 7.17345Z" fill="white"/>
<path fill-rule="evenodd" clip-rule="evenodd" d="M44.6594 6.25958C44.9407 5.76727 45.1517 6.18925 45.2923 5.90793C45.3627 5.8376 45.2923 5.8376 45.222 5.76727C45.1517 5.69694 45.0814 5.69694 44.589 5.48596C44.3781 5.41563 44.0967 5.20464 43.8858 5.06398C43.7451 4.99365 43.6748 4.99365 43.6748 5.06398C43.5341 5.27497 44.2374 5.41563 43.9561 5.97826L42.3385 9.1431C41.9165 9.91672 41.7055 9.35409 41.5649 9.70574C41.5649 9.77606 41.5649 9.77606 41.6352 9.84639C41.9165 9.98705 42.1275 10.0574 42.3385 10.198C42.6198 10.3387 42.9011 10.5497 43.6748 10.9013C44.0967 11.1123 44.6594 10.7607 44.9407 10.198C45.011 10.0574 45.011 10.0574 44.9407 10.0574C44.7297 9.98705 44.3781 10.831 43.1121 10.198C42.7605 9.98705 42.9011 9.77606 43.1121 9.35409L44.6594 6.25958Z" fill="white"/>
<path fill-rule="evenodd" clip-rule="evenodd" d="M47.8242 8.22839C48.2462 7.66575 48.4572 8.08773 48.5978 7.87674C48.6681 7.80641 48.5978 7.80641 48.4572 7.66575C48.1758 7.45476 47.9649 7.38443 47.8242 7.24377C47.6835 7.10311 47.4725 6.96245 47.2616 6.82179C47.1912 6.82179 47.1209 6.68113 47.0506 6.82179C46.9099 7.03278 47.5429 7.24377 47.1912 7.80641L45.222 10.7603C44.8 11.3229 44.589 10.9712 44.4484 11.1822C44.4484 11.1822 44.378 11.2526 44.4484 11.3229C44.589 11.3932 44.8 11.5339 45.011 11.6745C45.3627 11.9559 45.5736 12.0965 45.7143 12.1669C45.855 12.2372 45.855 12.2372 45.9253 12.1669C46.066 11.9559 45.2923 11.8855 45.855 11.1119L47.8242 8.22839Z" fill="white"/>
<path fill-rule="evenodd" clip-rule="evenodd" d="M47.6132 12.3778C47.0506 13.0811 46.7692 12.3778 46.5582 12.5888C46.4879 12.7295 46.5582 12.7998 46.6286 12.8701C46.8396 13.0108 46.9802 13.0811 47.2615 13.3624C47.5429 13.5734 47.6835 13.7141 47.8945 13.9251C48.0352 13.9954 48.1055 14.1361 48.2462 13.9954C48.3868 13.8547 47.6835 13.5734 48.1758 12.7998L50.2154 10.1976C50.4264 9.91628 50.4967 9.91628 50.7077 10.0569L51.1297 10.3383C51.6923 10.7602 51.0594 11.2525 51.2 11.3932C51.3407 11.4635 51.411 11.2525 51.4813 11.1119L51.833 10.5492C51.9033 10.4789 51.9033 10.4086 51.9033 10.3383C51.4813 9.98661 51.1297 9.77562 50.4967 9.28331C49.7934 8.72067 49.5121 8.50969 49.0901 8.15804C49.0198 8.08771 48.9495 8.15804 48.8791 8.22837L48.1758 8.93166C48.1055 9.00199 47.9648 9.14265 48.1055 9.21298C48.3165 9.35364 48.7385 8.50969 49.3011 8.93166L49.7231 9.21298C49.9341 9.35364 49.9341 9.42397 49.7231 9.70529L47.6132 12.3778Z" fill="white"/>
<path fill-rule="evenodd" clip-rule="evenodd" d="M52.6769 12.3778C53.0286 12.0262 53.0989 12.0262 53.5209 12.5888C54.2945 13.4328 53.3802 13.6438 53.5209 13.8548C53.5912 13.9251 53.8022 13.7844 53.8725 13.7141L54.3649 13.2218C54.4352 13.1515 54.4352 13.0811 54.3649 13.0108C54.0132 12.6592 53.7319 12.3778 53.4506 12.0262C52.8176 11.3932 52.6066 11.0416 52.3956 10.8306C52.3253 10.7602 52.255 10.7602 52.1846 10.8306C51.9736 11.0416 52.6066 11.3229 52.1143 11.8152L49.5824 14.1361C48.9495 14.769 48.8791 14.1361 48.6682 14.3471C48.6682 14.3471 48.5978 14.4174 48.6682 14.4877C48.8791 14.6987 49.0901 14.9097 49.2308 15.0504C49.4418 15.2613 49.6528 15.5427 50.2857 16.1756C50.6374 16.5273 51.2704 16.3866 51.6923 15.9646C51.7627 15.8943 51.7627 15.824 51.7627 15.824C51.622 15.6833 50.989 16.3866 49.9341 15.3317C49.6528 15.0504 49.8638 14.8394 50.2154 14.5581L50.9187 13.9251C51.2 13.6438 51.2704 13.5734 51.4813 13.7844L51.7627 14.1361C52.1846 14.5581 51.4813 14.98 51.622 15.1207C51.6923 15.191 51.9033 15.0504 51.9737 14.98L52.8879 14.0657C53.0286 13.9251 52.9583 13.8548 52.9583 13.8548C52.8879 13.7844 52.3956 14.2064 52.044 13.8548L51.7627 13.5734C51.622 13.3624 51.622 13.3624 51.833 13.1515L52.6769 12.3778Z" fill="white"/>
<path fill-rule="evenodd" clip-rule="evenodd" d="M57.0373 16.9495V16.8792C56.967 16.8088 56.756 16.9495 56.756 16.8792C56.6857 16.7385 56.756 16.1055 56.4044 15.5429C55.5604 14.3473 53.8725 14.6989 52.8879 15.4022C52.3956 15.7539 50.989 17.0198 51.9736 18.4264C52.6769 19.4814 53.9428 19.3407 54.1538 19.2C54.2242 19.2 54.2242 19.1297 54.1538 19.0594C54.0835 18.9187 53.0285 19.1297 52.5362 18.3561C51.9033 17.4418 52.8176 16.2462 53.7318 15.6132C54.5758 15.0506 55.7011 14.9099 56.1231 15.6132C56.4747 16.1759 56.2637 16.9495 55.8417 17.5825C55.7714 17.6528 55.7011 17.7934 55.7011 17.8638C55.7714 17.9341 55.9121 17.8638 55.9121 17.7934L57.0373 16.9495Z" fill="white"/>
<path fill-rule="evenodd" clip-rule="evenodd" d="M54.0835 19.9034C53.3802 20.2551 53.3099 19.6221 53.0286 19.7628C52.8879 19.8331 53.0286 19.9034 53.0286 19.9737C53.0989 20.1144 53.1692 20.2551 53.2396 20.3957C53.3099 20.6067 53.3802 20.7474 53.5209 21.0287C53.5209 21.099 53.5912 21.2397 53.7319 21.1694C54.0132 21.0287 53.2396 20.5364 54.5758 19.9737L56.8264 18.9188C56.8967 18.9188 56.967 18.8485 56.967 18.9188C56.967 18.9188 56.967 18.9891 56.8967 19.0595L54.5758 23.2089C54.5758 23.2792 54.5055 23.3496 54.5758 23.4199C54.5758 23.4902 54.6462 23.4902 54.7868 23.4199L58.5143 21.6617C59.2176 21.31 59.2879 21.8727 59.4989 21.8023C59.4989 21.8023 59.5692 21.732 59.5692 21.6617C59.5692 21.5913 59.4286 21.4507 59.2879 21.099C59.1473 20.7474 59.0769 20.5364 59.0066 20.4661C59.0066 20.3957 58.866 20.3957 58.866 20.4661C58.655 20.5364 59.0769 21.1694 58.444 21.4507L56.1934 22.5056C56.0528 22.5056 55.9824 22.5056 55.9121 22.5056C55.9121 22.5056 55.9824 22.365 55.9824 22.2243L57.9517 18.7078C58.022 18.5672 58.0923 18.5672 58.022 18.4265C57.8813 18.1452 57.811 18.0045 57.7407 17.8639C57.7407 17.7935 57.6703 17.7232 57.6703 17.5825C57.6703 17.5122 57.6 17.5122 57.5297 17.5122C57.178 17.6529 57.9517 18.0748 56.6154 18.6375L54.0835 19.9034Z" fill="white"/>
<path fill-rule="evenodd" clip-rule="evenodd" d="M59.3582 23.7715C59.9912 23.5605 59.9209 24.0528 60.1319 23.9825C60.2022 23.9825 60.2022 23.9121 60.2022 23.7715C60.1319 23.4198 59.9912 23.2792 59.9209 23.0682C59.8505 22.8572 59.8505 22.6462 59.7099 22.4352C59.7099 22.3649 59.6395 22.2242 59.5692 22.2946C59.3582 22.3649 59.7099 22.9275 59.0769 23.1385L55.7011 24.1935C55.0681 24.4044 55.0681 23.9121 54.8571 24.0528C54.7868 24.0528 54.7868 24.1231 54.7868 24.1231C54.8571 24.2638 54.9275 24.4748 54.9978 24.7561C55.1384 25.1781 55.2088 25.3891 55.2791 25.6001C55.3494 25.7407 55.3494 25.7407 55.4198 25.7407C55.6308 25.6704 55.1385 25.1781 55.9824 24.8968L59.3582 23.7715Z" fill="white"/>
<path fill-rule="evenodd" clip-rule="evenodd" d="M60.9055 28.1317C60.9759 28.1317 60.9759 28.0614 60.9055 28.0614C60.9055 27.9911 60.6242 27.9911 60.6242 27.9208C60.6242 27.7098 60.9759 27.2175 60.8352 26.5142C60.5539 25.0372 58.866 24.7559 57.6704 24.9669C57.1077 25.0372 55.2792 25.6702 55.5605 27.3581C55.7715 28.6241 56.9671 29.046 57.2484 28.9757C57.3187 28.9757 57.3187 28.9054 57.3187 28.9054C57.3187 28.7647 56.2638 28.5537 56.1231 27.6394C55.9121 26.5142 57.2484 25.8109 58.3033 25.6702C59.288 25.5295 60.3429 25.8109 60.5539 26.6548C60.6945 27.3581 60.1319 27.9208 59.4989 28.3427C59.4286 28.4131 59.288 28.4834 59.288 28.5537C59.288 28.6241 59.4989 28.6241 59.5693 28.5537L60.9055 28.1317Z" fill="white"/>
<path fill-rule="evenodd" clip-rule="evenodd" d="M18.8484 46.6284C18.6374 46.7691 18.6374 46.7691 18.4264 46.4877C18.0747 45.9954 18.567 45.9251 18.4264 45.8548C18.3561 45.7844 18.2857 45.8548 18.2857 45.9251L18.0044 46.1361C18.0044 46.1361 17.9341 46.2064 18.0044 46.2064C18.1451 46.4174 18.2857 46.5581 18.4264 46.7691C18.7077 47.1207 18.8484 47.3317 18.9187 47.402C18.9187 47.4724 18.989 47.4724 18.989 47.402C19.1297 47.3317 18.778 47.1207 19.0594 46.9097L20.3253 45.9251C20.6769 45.6438 20.6769 45.9954 20.7473 45.8548V45.7844C20.6769 45.6438 20.5363 45.5735 20.4659 45.5031C20.3956 45.3625 20.255 45.2218 19.9736 44.8702C19.833 44.6592 19.4813 44.6592 19.2703 44.8702C19.2 44.9405 19.2 44.9405 19.2 44.9405C19.2703 45.0108 19.622 44.7295 20.044 45.3625C20.1846 45.5735 20.044 45.5735 19.9033 45.7141L19.6923 45.9954C19.5517 46.1361 19.4813 46.1361 19.411 46.0658L19.2703 45.8548C19.0593 45.5735 19.411 45.4328 19.3407 45.3625C19.2703 45.2921 19.2 45.3625 19.2 45.4328L18.7077 45.7844C18.6374 45.8548 18.6374 45.8548 18.7077 45.8548C18.778 45.9251 18.989 45.7141 19.1297 45.9251L19.2703 46.0658C19.3407 46.1361 19.3407 46.2064 19.2 46.2768L18.8484 46.6284Z" fill="white"/>
<path fill-rule="evenodd" clip-rule="evenodd" d="M19.411 44.5185C19.622 44.5185 19.7627 44.6591 19.7627 44.5888C19.833 44.5888 19.7627 44.5185 19.6923 44.4481C19.622 44.3778 19.5517 44.3075 19.4813 44.2371C19.411 44.1668 19.411 44.0965 19.2704 43.9558C19.2 43.8855 19.2 43.8855 19.2 43.8855C19.1297 43.9558 19.3407 44.0965 19.2 44.2371C19.1297 44.2371 19.0594 44.3075 18.9187 44.3075H18.4967C18.4264 44.3075 18.3561 44.3075 18.3561 44.3075C18.3561 44.3075 18.3561 44.2371 18.4264 44.1668L18.6374 43.6745C18.6374 43.6042 18.7077 43.5338 18.778 43.4635C18.8484 43.3932 18.9187 43.5338 19.0594 43.4635C19.1297 43.4635 19.0594 43.3932 19.0594 43.3932C18.989 43.3229 18.9187 43.2525 18.8484 43.1119C18.778 42.9712 18.7077 42.9009 18.7077 42.9009C18.5671 42.9009 18.4967 42.9009 18.4967 42.9009C18.4264 42.9712 18.5671 43.0415 18.4264 43.3932L18.1451 44.2371C18.0747 44.3075 18.0748 44.3778 18.0748 44.3778C18.0748 44.3778 17.9341 44.3778 17.8638 44.3778H17.2308C16.8088 44.3778 16.7385 44.1668 16.6682 44.2371C16.6682 44.2371 16.5978 44.3075 16.6682 44.3075C16.7385 44.4481 16.8088 44.5185 16.8791 44.5888C16.9495 44.6591 16.9495 44.7294 17.0901 44.8701C17.0901 44.8701 17.0901 44.9404 17.1605 44.8701C17.2308 44.7998 17.0901 44.6591 17.1605 44.5888C17.2308 44.5185 17.3011 44.5185 17.4418 44.5185H17.8638C17.9341 44.5185 17.9341 44.5185 18.0044 44.5185V44.5888L17.7231 45.1514C17.7231 45.2218 17.6528 45.2218 17.6528 45.2218C17.5824 45.2921 17.4418 45.1514 17.3715 45.2218C17.3715 45.2218 17.3011 45.2218 17.3715 45.2921C17.4418 45.3624 17.4418 45.4327 17.6528 45.5734C17.7934 45.7844 17.8638 45.8547 17.8638 45.9251C17.8638 45.9954 17.9341 45.9954 17.9341 45.9251C18.0044 45.8547 17.7934 45.7844 18.0748 45.2218L18.3561 44.5888C18.3561 44.5185 18.4264 44.4481 18.4264 44.3778C18.4264 44.3778 18.4967 44.3778 18.5671 44.3778L19.411 44.5185Z" fill="white"/>
<path fill-rule="evenodd" clip-rule="evenodd" d="M28.6945 13.0815C29.0462 13.0815 29.3978 13.3629 29.3978 13.7848C29.3978 14.1365 29.1165 14.4881 28.6945 14.4881C28.3429 14.4881 27.9912 14.2068 27.9912 13.7848C27.9912 13.3629 28.3429 13.0815 28.6945 13.0815Z" fill="white"/>
<path fill-rule="evenodd" clip-rule="evenodd" d="M22.4352 14.4878C22.7868 14.4878 23.1385 14.7691 23.1385 15.1911C23.1385 15.5427 22.8572 15.8944 22.4352 15.8944C22.0835 15.8944 21.7319 15.6131 21.7319 15.1911C21.8022 14.7691 22.0835 14.4878 22.4352 14.4878Z" fill="white"/>
<path d="M43.0418 17.0901C42.9011 17.5121 42.6901 17.5825 42.0571 17.4418C41.4945 17.3715 41.4945 16.5978 41.5648 16.3165L40.6506 16.0352C40.2286 16.8088 39.8066 16.8792 39.3846 16.8088C38.7517 16.7385 38.6813 15.6132 38.7517 14.9803L37.767 14.7693C37.2747 16.1055 37.0637 16.2462 36.5011 16.3868C36.1495 16.4572 35.9385 16.2462 35.7978 16.1055C35.5868 15.8945 35.4462 15.6132 35.4462 15.3319C35.4462 15.1912 35.5165 15.0506 35.5165 14.9099L34.6022 14.7693C34.5319 14.9099 34.5319 15.1209 34.5319 15.2616C34.4615 15.6132 34.2506 15.9649 34.0396 16.1055C33.8989 16.2462 33.6879 16.2462 33.5473 16.1759C33.055 16.0352 32.4923 15.6836 32.4923 13.855H31.5077C31.5077 13.9253 31.5077 13.9956 31.5077 13.9956C31.5077 15.3319 31.156 15.9649 30.4528 16.1759C30.2418 16.2462 30.1011 16.1759 29.8901 16.0352C29.6791 15.8242 29.4681 15.4726 29.3978 15.1209C29.3978 14.9803 29.3978 14.8396 29.3978 14.6989L28.4132 14.7693C28.4132 14.9099 28.4132 15.0506 28.4132 15.1912C28.4132 15.5429 28.2725 15.8945 27.9912 16.1055C27.7802 16.3165 27.5692 16.3868 27.3582 16.3165C26.7956 16.1759 26.5143 15.9649 26.022 14.6286L25.1077 14.8396C25.178 15.5429 25.1077 16.6682 24.4747 16.7385C24.1231 16.8088 23.7011 16.7385 23.2791 15.8242L22.3648 16.1759C22.4352 16.8088 22.1539 17.3715 21.8022 17.5121C21.1692 17.6528 21.1692 17.6528 20.8879 17.1605L20.8176 17.0198L19.9736 17.5121L20.044 17.6528C20.4659 18.4264 20.8176 18.7781 22.0132 18.4264C22.5758 18.2857 22.9275 17.8638 23.1385 17.3715C23.5604 17.7231 24.0528 17.8638 24.6154 17.7934C25.1077 17.7231 25.6 17.4418 25.8813 16.5978C26.233 16.9495 26.5846 17.2308 27.1473 17.3011C27.7099 17.3715 28.2022 17.2308 28.6242 16.8088C28.6945 16.7385 28.8352 16.5978 28.9055 16.4572C28.9758 16.5978 29.1165 16.6682 29.1868 16.7385C29.6088 17.0901 30.1011 17.1605 30.5934 17.0198C31.2264 16.8088 31.6484 16.4572 31.9297 16.0352C32.211 16.5275 32.633 16.8792 33.1956 17.0198C33.6879 17.1605 34.1099 17.0901 34.5319 16.7385C34.6725 16.6682 34.7429 16.5275 34.8835 16.3868C34.9539 16.4572 35.0242 16.5275 35.0242 16.5978C35.4462 17.0901 36.0088 17.3011 36.6418 17.1605C37.2044 17.0901 37.5561 16.8088 37.9077 16.4572C38.189 17.3011 38.822 17.5121 39.244 17.5825C39.6659 17.6528 40.2286 17.5825 40.7209 17.2308C40.9319 17.7231 41.3539 18.0748 41.8462 18.2154C42.3385 18.2857 43.3934 18.4967 43.956 17.3011L43.0418 17.0901Z" fill="white"/>
<path fill-rule="evenodd" clip-rule="evenodd" d="M35.0945 13.0815C35.4462 13.0815 35.7978 13.3629 35.7978 13.7848C35.7978 14.1365 35.5165 14.4881 35.0945 14.4881C34.7429 14.4881 34.3912 14.2068 34.3912 13.7848C34.3912 13.4332 34.6726 13.0815 35.0945 13.0815Z" fill="white"/>
<path fill-rule="evenodd" clip-rule="evenodd" d="M41.4242 14.3472C41.7758 14.3472 42.1275 14.6285 42.1275 15.0505C42.1275 15.4724 41.8462 15.7538 41.4242 15.7538C41.0725 15.7538 40.7209 15.4724 40.7209 15.0505C40.7209 14.6285 41.0022 14.3472 41.4242 14.3472Z" fill="white"/>
<path fill-rule="evenodd" clip-rule="evenodd" d="M22.5055 20.5363L23.2088 19.833L24.1231 20.1847L23.4198 20.888L22.5055 20.5363Z" fill="white"/>
<path d="M20.8879 19.9738C25.1077 18.6375 27.5693 18.2156 32 18.2859C36.5011 18.2859 38.9627 18.7079 43.1825 19.9738C43.1825 19.9738 43.5341 20.0441 43.6748 19.6221C43.8154 19.2002 43.4638 19.0595 43.4638 19.0595C39.244 17.7232 36.5715 17.3013 32 17.3013C27.4989 17.3013 24.8264 17.7232 20.6066 19.0595C20.6066 19.0595 20.255 19.2002 20.3956 19.6221C20.466 20.0441 20.8879 19.9738 20.8879 19.9738Z" fill="white"/>
<path d="M21.7318 22.6461C22.0835 22.5757 22.5055 22.5054 22.9275 22.3647C25.0373 21.8724 27.5692 21.3098 31.9297 21.3098C35.5165 21.3098 37.978 21.8021 41.0725 22.4351L42.1978 22.6461C42.1978 22.6461 42.5494 22.7164 42.6198 22.2944C42.6901 21.8724 42.3385 21.7318 42.3385 21.7318L41.2132 21.5208C38.0483 20.8878 35.5868 20.3955 31.8593 20.3955C27.4286 20.3955 24.756 21.0285 22.6461 21.5208C22.2242 21.5911 21.8725 21.7318 21.4505 21.8021C21.4505 21.8021 21.0989 21.9428 21.1692 22.3647C21.3802 22.7164 21.7318 22.6461 21.7318 22.6461Z" fill="white"/>
<path fill-rule="evenodd" clip-rule="evenodd" d="M28.1319 19.4811L28.9759 18.8481L29.8901 19.3405L29.0462 19.9031L28.1319 19.4811Z" fill="white"/>
<path fill-rule="evenodd" clip-rule="evenodd" d="M43.1824 21.1693C43.3934 20.7473 43.1121 20.1143 43.1121 20.1143C42.7604 20.044 42.1275 20.044 41.9868 20.5363C41.8462 21.0286 41.9868 21.3803 42.5495 21.7319C42.4791 21.6616 42.8308 21.5913 43.1824 21.1693Z" fill="white"/>
<path fill-rule="evenodd" clip-rule="evenodd" d="M41.4242 20.5363L40.7209 19.833L39.8066 20.1847L40.5099 20.888L41.4242 20.5363Z" fill="white"/>
<path fill-rule="evenodd" clip-rule="evenodd" d="M35.7275 19.4811L34.9538 18.8481L34.0396 19.3405L34.8835 19.9031L35.7275 19.4811Z" fill="white"/>
<path fill-rule="evenodd" clip-rule="evenodd" d="M39.1736 19.9737C39.244 19.4814 38.6813 19.1297 37.978 18.9891C37.2747 18.8484 36.5714 19.0594 36.5011 19.5517C36.4308 20.044 36.9231 20.3957 37.6967 20.5363C38.4 20.6066 39.1033 20.466 39.1736 19.9737Z" fill="white"/>
<path fill-rule="evenodd" clip-rule="evenodd" d="M48.3165 22.3649C48.4572 22.2946 48.5275 22.2946 48.5978 22.4352C48.8791 22.8572 48.3868 23.1385 48.3165 23.2089C48.2462 23.2792 47.8945 23.4199 47.6835 23.1385C47.6132 23.0682 47.6132 22.9979 47.6132 22.9979H47.5429C47.5429 22.9979 47.4725 23.0682 47.6132 23.3495C47.8242 23.6309 48.1758 23.7715 48.5978 23.5605C49.0198 23.2792 49.0198 22.8572 48.8088 22.5056C48.6681 22.2946 48.5978 22.1539 48.5275 22.0836C48.3868 21.8726 48.3165 21.732 48.3165 21.732C48.2462 21.6616 48.2462 21.6616 48.2462 21.6616C48.1055 21.732 48.4572 21.9429 48.1055 22.1539L46.7692 22.9979C46.3473 23.2089 46.3473 22.9979 46.2066 23.0682C46.1363 23.0682 46.2066 23.1385 46.2066 23.1385C46.2066 23.1385 46.3473 23.3495 46.4176 23.4902C46.4879 23.5605 46.4879 23.7012 46.6286 23.8418C46.6286 23.9122 46.6286 23.9122 46.6989 23.9122C46.8396 23.8418 46.5583 23.6308 46.9099 23.4199L48.3165 22.3649Z" fill="white"/>
<path fill-rule="evenodd" clip-rule="evenodd" d="M51.2 30.0307C51.2704 30.0307 51.3407 30.0307 51.3407 29.9604C51.3407 29.89 51.2704 29.89 51.2 29.89C51.2 29.8197 51.411 29.5384 51.3407 29.1164C51.2704 28.3428 50.4264 28.1318 49.7934 28.2021C49.5121 28.2725 48.5978 28.4835 48.7385 29.3977C48.8088 29.7494 49.0198 30.0307 49.2308 30.312H49.3011C49.3715 30.312 49.4418 30.312 49.5824 30.2417C50.0747 30.1714 49.8638 30.3824 50.0044 30.3824C50.0747 30.3824 50.0747 30.3824 50.0747 30.312C50.0747 30.2417 50.0044 30.101 50.0044 29.9604C50.0044 29.8197 50.0044 29.6791 49.9341 29.5384C49.9341 29.4681 49.9341 29.3977 49.8638 29.3977C49.7231 29.3977 50.0044 29.7494 49.4418 29.8197C49.2308 29.8197 48.9495 29.89 48.8791 29.3274C48.8088 28.8351 49.4418 28.5538 49.9341 28.4835C50.8484 28.3428 51.1297 28.6944 51.1297 28.9758C51.2704 29.7494 50.4264 29.89 50.4967 29.9604C50.4967 30.0307 50.4967 30.0307 50.5671 30.0307H51.2Z" fill="white"/>
<path fill-rule="evenodd" clip-rule="evenodd" d="M50.9187 33.4768C51.2 33.4768 51.2 33.5471 51.1297 33.8988C51.0594 34.4614 50.6374 34.1801 50.6374 34.3207C50.6374 34.3911 50.7781 34.3911 50.7781 34.3911H51.1297C51.1297 34.3911 51.2 34.3911 51.2 34.3207C51.2 34.0394 51.2704 33.8284 51.2704 33.6174C51.3407 33.1251 51.3407 32.9141 51.3407 32.8438C51.3407 32.7735 51.3407 32.7735 51.2704 32.7735C51.1297 32.7735 51.2 33.1251 50.8484 33.0548L49.1605 32.8438C48.7385 32.7735 48.9495 32.5625 48.8088 32.5625C48.8088 32.5625 48.7385 32.5625 48.7385 32.6328C48.7385 32.7735 48.7385 32.9141 48.7385 33.0548C48.7385 33.1955 48.6682 33.4065 48.6682 33.8284C48.6682 34.1097 48.9495 34.3207 49.2308 34.3207C49.3011 34.3207 49.3011 34.3207 49.3011 34.3207C49.3011 34.1801 48.8088 34.1801 48.9495 33.4065C48.9495 33.1955 49.0901 33.1955 49.3011 33.2658L49.7934 33.3361C50.0044 33.3361 50.0748 33.3361 50.0044 33.4768V33.6878C50.0044 34.0394 49.5824 33.8988 49.5824 33.9691C49.5824 34.0394 49.7231 34.0394 49.7231 34.0394L50.3561 34.1097C50.4264 34.1097 50.4264 34.1097 50.4264 34.0394C50.4264 33.9691 50.0748 33.8988 50.1451 33.6878V33.4768C50.1451 33.3361 50.2154 33.3361 50.3561 33.3361L50.9187 33.4768Z" fill="white"/>
<path fill-rule="evenodd" clip-rule="evenodd" d="M48.8791 34.5317C48.8088 34.5317 48.7385 34.5317 48.7385 34.6021C48.6682 34.7427 48.5275 34.8834 48.5275 35.0944C48.4572 35.5164 48.7385 35.7977 49.1605 35.9383C49.5824 36.0087 49.7934 35.868 50.0044 35.5867C50.2857 35.235 50.3561 35.0944 50.6374 35.0944C50.8484 35.1647 50.989 35.3054 50.9187 35.5164C50.8484 36.0087 50.1451 35.9383 50.1451 36.0087C50.1451 36.079 50.1451 36.079 50.2857 36.079L50.778 36.1493C50.8484 36.1493 50.9187 36.1493 50.9187 36.1493C50.9187 36.079 50.8484 36.0087 50.9187 36.0087C50.9187 35.9383 51.1297 35.7977 51.1297 35.5867C51.2 35.235 50.9187 34.9537 50.5671 34.8834C50.2154 34.8131 50.0044 34.9537 49.8638 35.1647C49.5121 35.5867 49.4418 35.7977 49.1605 35.7273C48.8791 35.657 48.7385 35.446 48.8088 35.235C48.8791 34.8834 49.2308 34.8131 49.5824 34.7427C49.6528 34.7427 49.6528 34.7427 49.6528 34.6724C49.6528 34.6021 49.5824 34.6021 49.5121 34.6021H48.8791V34.5317Z" fill="white"/>
<path fill-rule="evenodd" clip-rule="evenodd" d="M48.5275 36.0791C48.4572 36.0791 48.3868 36.0791 48.3868 36.1494C48.3165 36.2901 48.1759 36.4307 48.1055 36.5714C47.9649 36.923 48.1758 37.345 48.6682 37.4857C49.0901 37.6263 49.3011 37.4857 49.5824 37.2044C49.9341 36.8527 50.0044 36.7121 50.2154 36.7824C50.4264 36.8527 50.5671 37.0637 50.4967 37.2044C50.3561 37.6967 49.6528 37.556 49.6528 37.6263C49.6528 37.6967 49.6528 37.6967 49.7231 37.6967L50.2154 37.8373C50.2857 37.8373 50.3561 37.9077 50.3561 37.8373C50.3561 37.767 50.3561 37.6967 50.3561 37.6967C50.3561 37.6263 50.5671 37.556 50.6374 37.2747C50.778 36.923 50.5671 36.6417 50.1451 36.5011C49.7934 36.3604 49.5824 36.5011 49.3715 36.7121C48.9495 37.134 48.8791 37.2747 48.5978 37.2044C48.3165 37.134 48.2462 36.8527 48.3165 36.6417C48.4572 36.2901 48.8088 36.2198 49.1605 36.2198C49.2308 36.2198 49.2308 36.2198 49.2308 36.1494C49.2308 36.0791 49.1605 36.0791 49.0901 36.0791H48.5275Z" fill="white"/>
<path fill-rule="evenodd" clip-rule="evenodd" d="M49.6528 38.6815C50.0044 38.8221 49.7934 38.9628 49.8638 39.0331C49.9341 39.0331 49.9341 39.0331 49.9341 38.9628C50.0044 38.8221 50.0044 38.6815 50.0748 38.6111C50.1451 38.5408 50.1451 38.4001 50.2154 38.2595C50.2154 38.2595 50.2857 38.1892 50.2154 38.1188C50.0748 38.0485 50.0748 38.4001 49.7934 38.3298L48.1759 37.7672C47.8242 37.6265 48.0352 37.4859 47.8945 37.4155H47.8242C47.8242 37.4859 47.7539 37.6265 47.7539 37.7672C47.6836 37.9782 47.6132 38.1188 47.6132 38.1892C47.6132 38.2595 47.6132 38.2595 47.6132 38.3298C47.7539 38.4001 47.6836 37.9782 48.1055 38.1188L49.6528 38.6815Z" fill="white"/>
<path fill-rule="evenodd" clip-rule="evenodd" d="M48.6681 38.6812C47.9648 38.3998 47.4022 38.6812 47.1912 39.2438C46.8395 40.1581 47.6132 40.6504 48.1055 40.7911C48.8088 41.0724 49.4417 40.7911 49.6527 40.2284C49.7934 39.5251 49.3714 38.8922 48.6681 38.6812ZM49.4417 40.0878C49.3011 40.4394 48.8088 40.6504 48.0351 40.3691C47.4725 40.1581 47.0505 39.8064 47.2615 39.3141C47.4725 38.8218 48.2461 38.8922 48.7384 39.0328C49.2307 39.2438 49.6527 39.5954 49.4417 40.0878Z" fill="white"/>
<path d="M22.1539 46.6285C22.0835 46.3472 22.0132 46.1362 21.8022 45.7846C21.4506 45.222 21.3099 45.011 20.7473 44.3077C20.677 44.2373 20.6769 44.2373 20.6066 44.167L21.1693 43.534L21.2396 43.4637L21.3802 43.3934V43.323L21.0989 42.8307C20.7473 42.2681 20.466 41.8461 20.1143 41.1428C19.622 40.0879 19.411 39.4549 19.1297 38.3296L18.778 38.4L17.7934 38.6813C16.3165 34.8835 15.8945 31.578 16.5275 28.5538L18.6374 29.4681L18.9187 29.6088L18.989 29.3274L19.9737 25.6L20.044 25.4593H19.9737L19.833 25.3187L18.9187 24.8263L19.3407 23.0681L19.4813 22.9274L19.2704 22.7868L15.1912 20.1846L15.0506 20.3956L14.8396 20.2549C12.589 23.4198 11.3231 27.2879 11.2528 31.2967C11.1121 35.4461 12.2374 39.3846 14.4879 42.7604L14.6286 42.9714L14.8396 42.8307L16.1055 42.0571C16.1759 42.2681 16.3868 42.6198 16.5275 42.8307C16.5978 42.9714 16.6682 43.0417 16.7385 43.1824L15.5429 43.956L15.6835 44.167H15.4726L15.6132 44.378C16.3868 45.7143 18.2857 48.9494 20.1846 48.3165C20.7473 48.1055 21.0989 47.8241 21.4506 47.5428C21.6616 47.3318 21.8726 47.1912 22.1539 46.9802L22.2945 46.9099L22.2242 46.6989L22.1539 46.6285ZM20.3253 43.745C20.044 43.3934 19.7627 42.9714 19.5517 42.5494L20.677 43.323L20.3253 43.745ZM18.4967 38.9626L18.2857 39.8066C18.2154 39.5956 18.0748 39.3846 18.0044 39.1736L18.4967 38.9626ZM18.6374 28.9055L16.6682 28.0615C16.6682 27.9209 16.7385 27.7802 16.8088 27.6395L18.0044 27.7802H18.1451L18.2154 27.7099L19.2704 26.3736L18.6374 28.9055ZM16.9495 27.2176C17.3715 26.0923 17.8638 24.967 18.6374 23.9121L17.8638 27.2879L16.9495 27.2176ZM19.411 25.6L18.4967 26.7252L18.778 25.3187L19.411 25.6ZM14.6989 42.1978C12.589 38.9626 11.5341 35.1648 11.6748 31.2263C11.7451 27.4285 13.011 23.7011 15.0506 20.6769L18.7077 22.9978C15.0506 27.6395 14.8396 33.2659 17.9341 40.2285L14.6989 42.1978ZM16.4572 41.7055L18.3561 40.5099L18.4967 40.3692L18.778 39.1736C18.989 39.8769 19.2 40.4395 19.5517 41.2835C19.7627 41.7758 19.9737 42.1274 20.255 42.5494L18.9187 41.6351H18.989L18.778 41.7758L17.0901 42.9011C17.0198 42.7604 16.9495 42.6901 16.8791 42.5494C16.7385 42.2681 16.5275 41.8461 16.4572 41.7055ZM21.0989 47.1912C20.7473 47.4725 20.466 47.6835 19.9737 47.8945C18.4264 48.3868 16.5978 45.3626 15.8945 44.167L18.778 42.2681C19.2 43.0417 19.833 43.956 20.3253 44.589C20.8879 45.2923 21.0286 45.5033 21.3802 45.9956C21.5912 46.2769 21.5912 46.4176 21.7319 46.6989C21.5209 46.9099 21.3099 47.0505 21.0989 47.1912ZM52.677 31.2263C52.6066 27.2879 51.2704 23.3494 49.0901 20.1846L48.8792 20.3252L48.7385 20.1143L44.6594 22.7165L44.4484 22.8571L44.589 22.9978L45.011 24.756L44.0264 25.3187L43.8154 25.389H43.7451L43.8154 25.5296L44.8 29.2571L44.8704 29.5384L45.0813 29.3978L47.1912 28.4835C47.8242 31.5077 47.4726 34.8132 45.9956 38.611L45.0813 38.4L44.7297 38.3296C44.4484 39.3846 44.2374 40.0176 43.7451 41.1428C43.3934 41.8461 43.1121 42.2681 42.7605 42.8307L42.4792 43.323L42.6901 43.534L43.2528 44.167C43.2528 44.2373 43.1824 44.2373 43.1824 44.3077C42.6901 44.8703 42.6198 45.011 42.2682 45.3626L41.9868 45.6439C41.5649 45.9252 41.3539 46.3472 41.3539 46.6989C41.3539 46.9099 41.4945 47.0505 41.7055 47.1209C42.1978 47.3318 42.3385 47.3318 42.4088 47.4022C42.4792 47.4022 42.5495 47.4022 42.6198 47.4725L43.1121 47.5428C43.8857 47.6835 43.9561 47.6835 44.9407 47.4022C46.6989 46.8395 47.7539 44.589 47.7539 44.4483L47.5429 44.378L47.6835 44.167L46.8396 43.6747C46.9802 43.4637 47.2616 43.0417 47.4022 42.7604C47.5429 42.4791 47.7539 42.1274 47.8242 41.9868L49.0901 42.7604L49.3011 42.9011L49.4418 42.6901C51.622 39.3143 52.7473 35.3758 52.677 31.2263ZM45.0813 25.3187L45.3627 26.7252L44.5187 25.6703L45.0813 25.3187ZM45.222 23.9121C45.9253 24.967 46.4879 26.0923 46.9099 27.2176L45.9956 27.3582L45.222 23.9121ZM45.222 28.9055L44.589 26.4439L45.644 27.7802L45.7143 27.8505H45.855L47.0506 27.7099C47.1209 27.8505 47.1209 27.9912 47.1912 28.1318L45.222 28.9055ZM45.855 39.1033C45.7846 39.3143 45.644 39.5252 45.5737 39.7362L45.3627 38.9626L45.855 39.1033ZM43.1824 43.4637L44.0264 42.9714C43.8154 43.323 43.6748 43.534 43.4638 43.8154L43.1824 43.4637ZM47.2616 44.4483C46.9802 45.011 46.066 46.5582 44.8 46.9099C43.9561 47.1912 43.8857 47.1912 43.1824 47.0505L42.7605 46.9802C42.6198 46.9099 42.5495 46.9099 42.5495 46.9099C42.4792 46.9099 42.3385 46.8395 41.9165 46.6989C41.8462 46.6989 41.8462 46.6285 41.8462 46.6285C41.8462 46.4879 41.9868 46.2066 42.2682 45.9956L42.5495 45.7143C42.9011 45.3626 43.0418 45.222 43.5341 44.6593C43.9561 44.0967 44.3077 43.745 44.7297 42.9714L47.2616 44.4483ZM46.9803 42.5494C46.8396 42.8307 46.5583 43.1824 46.4176 43.4637L44.7297 42.4088L44.5187 42.2681L43.3231 42.9011C43.6044 42.4088 43.8857 41.9868 44.1671 41.3538C44.5187 40.5099 44.7297 39.9472 44.9407 39.2439L45.222 40.4395L45.433 40.5802L47.3319 41.7758C47.3319 41.8461 47.1912 42.2681 46.9803 42.5494ZM49.1605 42.1978L45.9253 40.2285C49.0198 33.2659 48.8088 27.6395 45.1517 22.9978L48.8088 20.6769C50.9187 23.7011 52.1143 27.4285 52.1846 31.2263C52.3253 35.2351 51.2704 38.9626 49.1605 42.1978Z" fill="white"/>
<path fill-rule="evenodd" clip-rule="evenodd" d="M33.3363 19.3405C33.3363 18.8482 32.7737 18.5669 32 18.5669C31.2264 18.5669 30.6638 18.8482 30.5934 19.3405C30.5934 19.8328 31.1561 20.1141 31.9297 20.1141C32.7033 20.0438 33.3363 19.8328 33.3363 19.3405Z" fill="white"/>
<path fill-rule="evenodd" clip-rule="evenodd" d="M24.6857 19.9737C24.6154 19.4814 25.178 19.1297 25.8813 18.9891C26.5846 18.8484 27.2879 19.0594 27.3582 19.5517C27.4286 20.044 26.9363 20.3957 26.1626 20.5363C25.389 20.6066 24.756 20.466 24.6857 19.9737Z" fill="white"/>
<path fill-rule="evenodd" clip-rule="evenodd" d="M16.0352 38.8921C16.3868 38.6811 16.3868 39.1031 16.5275 39.0328C16.5978 39.0328 16.5978 38.9625 16.5275 38.8921C16.4571 38.7515 16.3868 38.6811 16.3165 38.5405C16.2461 38.3295 16.1758 38.2592 16.1055 38.1185C16.0352 38.0482 16.0352 37.9778 15.9648 38.0482C15.8945 38.1185 16.1758 38.3998 15.7538 38.6108L14.3472 39.3141C14.2066 39.3844 14.1363 39.3844 14.1363 39.2438L13.9956 39.0328C13.8549 38.7515 14.2066 38.6108 14.1363 38.5405C14.0659 38.4702 13.9956 38.5405 13.9253 38.6108L13.8549 38.6811L13.7846 38.7515C13.9253 39.0328 13.9956 39.1735 14.2066 39.5954C14.4176 40.0174 14.4879 40.1581 14.6286 40.4394C14.6286 40.5097 14.6989 40.4394 14.6989 40.4394L15.1209 40.2987C15.1912 40.2987 15.2615 40.2987 15.1912 40.2284C15.1209 40.0877 14.7692 40.3691 14.6286 40.0877L14.4879 39.8768C14.4176 39.7361 14.4176 39.7361 14.5582 39.6658L16.0352 38.8921Z" fill="white"/>
<path fill-rule="evenodd" clip-rule="evenodd" d="M13.644 37.275C13.433 37.3453 13.433 37.3453 13.2923 36.9936C13.1517 36.431 13.5736 36.5717 13.5033 36.431C13.5033 36.3607 13.3627 36.431 13.3627 36.431L13.011 36.5013L12.9407 36.5717C13.011 36.853 13.0813 37.064 13.1517 37.275C13.2923 37.6969 13.3627 37.9783 13.3627 38.0486C13.3627 38.1189 13.433 38.1189 13.433 38.1189C13.5736 38.0486 13.3627 37.7673 13.644 37.6969L15.1912 37.275C15.6132 37.1343 15.4725 37.4156 15.6132 37.4156C15.6132 37.4156 15.6132 37.4156 15.6132 37.3453C15.5429 37.2046 15.5429 37.064 15.4725 36.9936C15.4022 36.853 15.4022 36.642 15.2616 36.22C15.1912 36.009 14.8396 35.8684 14.6286 35.9387C14.5583 35.9387 14.5583 36.009 14.5583 36.009C14.5583 36.1497 14.9802 35.9387 15.1912 36.7123C15.2616 36.9233 15.1209 36.9233 14.9099 36.9936L14.4879 37.1343C14.2769 37.2046 14.2769 37.2046 14.2066 37.064L14.1363 36.853C14.0659 36.5717 14.4176 36.5013 14.4176 36.431C14.4176 36.3607 14.2769 36.431 14.2066 36.431L13.644 36.642C13.5736 36.642 13.5736 36.7123 13.5736 36.7123C13.5736 36.7827 13.9253 36.7123 13.9956 36.9233L14.0659 37.1343C14.1363 37.275 14.0659 37.275 13.9253 37.3453L13.644 37.275Z" fill="white"/>
<path fill-rule="evenodd" clip-rule="evenodd" d="M13.5736 35.5869C13.9253 35.5166 14.2066 35.2353 14.1362 34.8836C14.0659 34.6023 13.7846 34.321 13.7143 34.3913C13.6439 34.3913 13.6439 34.3913 13.6439 34.4616C13.6439 34.532 13.8549 34.6023 13.8549 34.8133C13.9253 35.0946 13.5736 35.3056 13.222 35.3759C13.011 35.3759 12.7296 35.3759 12.7296 35.1649C12.7296 35.0243 12.8 34.9539 12.9406 34.8836C12.9406 34.8836 13.011 34.8836 13.011 34.8133C13.011 34.7429 12.8 34.6023 12.8 34.6023C12.589 34.6023 12.589 34.9539 12.589 35.0243C12.7296 35.4462 13.1516 35.6572 13.5736 35.5869Z" fill="white"/>
<path fill-rule="evenodd" clip-rule="evenodd" d="M12.8703 31.7188C12.5187 31.7188 12.6594 31.5078 12.5187 31.5078C12.5187 31.5078 12.4484 31.5078 12.4484 31.5782C12.4484 31.7188 12.4484 31.8595 12.4484 32.0002C12.4484 32.2111 12.4484 32.2815 12.4484 32.4221C12.4484 32.4925 12.4484 32.4925 12.5187 32.4925C12.589 32.4925 12.5187 32.1408 12.8703 32.1408H13.3627C13.433 32.1408 13.5033 32.1408 13.5033 32.2111V33.1254C13.5033 33.1958 13.433 33.1958 13.3627 33.1958H12.8C12.5187 33.1958 12.589 32.9848 12.5187 32.9848C12.5187 32.9848 12.4484 32.9848 12.4484 33.0551C12.4484 33.1254 12.4484 33.2661 12.4484 33.4771C12.4484 33.6177 12.4484 33.7584 12.4484 33.8287C12.4484 33.8991 12.4484 33.9694 12.5187 33.9694C12.6594 33.9694 12.5187 33.6177 12.8703 33.6177H14.4176C14.8396 33.6177 14.6989 33.8991 14.8396 33.8991C14.9099 33.8991 14.9099 33.8991 14.9099 33.8287C14.9099 33.6881 14.9099 33.5474 14.9099 33.4068C14.9099 33.1958 14.9099 33.0551 14.9099 32.9848C14.9099 32.9144 14.9099 32.9144 14.8396 32.9144C14.6989 32.9144 14.8396 33.2661 14.4176 33.2661H13.855C13.7143 33.2661 13.644 33.2661 13.644 33.1254V32.2815C13.644 32.1408 13.7143 32.1408 13.855 32.1408H14.4879C14.8396 32.1408 14.6989 32.3518 14.8396 32.3518C14.8396 32.3518 14.9099 32.3518 14.9099 32.2815C14.9099 32.1408 14.9099 32.0002 14.9099 31.8595C14.9099 31.7188 14.9099 31.5782 14.9099 31.4375C14.9099 31.3672 14.9099 31.3672 14.8396 31.3672C14.6989 31.3672 14.8396 31.7188 14.4176 31.7188H12.8703Z" fill="white"/>
<path fill-rule="evenodd" clip-rule="evenodd" d="M14.4879 30.8043C14.8395 30.8746 14.7692 31.1559 14.9099 31.1559C14.9802 31.1559 14.9802 31.0856 14.9802 31.0856C14.9802 31.0152 14.9802 30.9449 14.9802 30.8043C14.9802 30.6636 14.9802 30.5933 15.0505 30.4526C15.0505 30.3823 15.0505 30.3119 15.0505 30.3119C14.9099 30.3119 15.0505 30.7339 14.4176 30.6636L13.222 30.5229H13.1516C13.1516 30.5229 13.1516 30.5229 13.222 30.4526L15.1209 29.1867L15.1912 29.1163C15.1912 29.046 15.1912 29.046 15.1209 29.046L13.1516 28.835C12.8 28.7647 12.8703 28.5537 12.8 28.5537C12.8 28.5537 12.7296 28.5537 12.7296 28.624C12.7296 28.624 12.7296 28.7647 12.7296 28.9757C12.7296 29.1867 12.6593 29.257 12.6593 29.3273C12.6593 29.3977 12.6593 29.3977 12.7296 29.3977C12.8703 29.3977 12.8 29.046 13.1516 29.046L14.2769 29.1867C14.3472 29.1867 14.4176 29.1867 14.4176 29.257L14.3472 29.3273L12.6593 30.3119C12.589 30.3823 12.589 30.3119 12.589 30.3823C12.589 30.5229 12.589 30.6636 12.589 30.7339C12.589 30.8043 12.589 30.8746 12.589 30.8746C12.589 30.9449 12.589 30.9449 12.6593 30.9449C12.8 30.9449 12.6593 30.5933 13.2923 30.6636L14.4879 30.8043Z" fill="white"/>
<path fill-rule="evenodd" clip-rule="evenodd" d="M13.3626 27.2882C13.011 27.2178 13.2219 27.0068 13.0813 27.0068C13.011 27.0068 13.011 27.0068 13.011 27.0772C12.9406 27.2178 12.9406 27.3585 12.9406 27.4991C12.9406 27.6398 12.8703 27.7101 12.8703 27.8508C12.8703 27.8508 12.8703 27.9211 12.8703 27.9915C13.011 27.9915 12.9406 27.6398 13.2923 27.7101L14.9099 28.0618C15.2615 28.1321 15.1209 28.3431 15.1912 28.3431H15.2615C15.2615 28.2728 15.2615 28.1321 15.3318 27.9915C15.4022 27.7805 15.4022 27.6398 15.4725 27.4991C15.4725 27.4288 15.4725 27.4288 15.4725 27.3585C15.3318 27.3585 15.4725 27.7101 15.0505 27.6398L13.3626 27.2882Z" fill="white"/>
<path fill-rule="evenodd" clip-rule="evenodd" d="M14.0659 24.4043C14.0659 24.4043 14.0659 24.4746 14.0659 24.4043C13.9956 24.4746 14.1363 24.545 14.1363 24.545C14.1363 24.6153 13.855 24.7559 13.7143 25.1076C13.433 25.8109 13.9956 26.3735 14.5582 26.5845C14.8396 26.6548 15.6835 26.8658 16.0352 26.0219C16.2462 25.3889 15.8945 24.8966 15.7538 24.8966H15.6835C15.6835 24.9669 15.9648 25.3186 15.8242 25.7406C15.6132 26.3032 14.9099 26.3032 14.4176 26.0922C13.9956 25.9515 13.644 25.5296 13.7846 25.1076C13.9253 24.7559 14.2769 24.6153 14.6286 24.6153C14.6989 24.6153 14.7692 24.6153 14.7692 24.545C14.7692 24.4746 14.6989 24.4746 14.6989 24.4746L14.0659 24.4043Z" fill="white"/>
<path fill-rule="evenodd" clip-rule="evenodd" d="M21.6616 54.5759C21.6616 54.3649 21.6616 54.2946 21.5912 54.2946C21.5209 54.2242 21.4506 54.3649 21.3099 54.4352L17.5825 57.5297C17.2308 57.811 16.9495 57.6001 16.8792 57.7407C16.8088 57.811 16.9495 57.8814 17.0198 57.8814C17.2308 57.9517 17.3715 58.022 17.5825 58.1627C17.7934 58.233 17.9341 58.3737 18.1451 58.5143C18.2857 58.5847 18.4264 58.7253 18.4967 58.5847C18.5671 58.3737 17.8638 58.1627 18.0748 57.6704C18.1451 57.5297 18.3561 57.3187 18.4967 57.2484C18.8484 56.8968 18.989 56.8968 19.1297 56.9671L20.3253 57.6001C20.466 57.6704 20.466 57.7407 20.3956 58.3737C20.3956 58.5847 20.3253 58.7253 20.255 58.866C20.044 59.288 19.622 58.9363 19.5517 59.1473C19.4814 59.2176 19.622 59.288 19.6923 59.3583C19.9033 59.4286 20.1143 59.5693 20.3956 59.7099C20.8176 59.9209 20.9583 60.0616 21.1693 60.1319C21.3099 60.2023 21.3803 60.2726 21.4506 60.1319C21.5912 59.9209 21.0989 59.9913 21.0989 59.4286L21.6616 54.5759ZM20.677 56.9671C20.677 57.0374 20.677 57.1781 20.6066 57.2484C20.5363 57.3187 20.466 57.2484 20.3956 57.1781L19.5517 56.7561C19.411 56.6858 19.3407 56.6858 19.411 56.6154C19.4814 56.5451 19.5517 56.4748 19.622 56.4044L20.677 55.4902C20.7473 55.4198 20.7473 55.4198 20.8176 55.4198C20.8176 55.4198 20.8176 55.4198 20.8176 55.4902L20.677 56.9671Z" fill="white"/>
<path fill-rule="evenodd" clip-rule="evenodd" d="M51.1297 54.5756C50.9891 54.3646 50.8484 54.8569 50.3561 54.5756L46.1363 52.1844C45.9253 52.0437 45.9253 52.0437 45.855 52.1141C45.7847 52.1844 45.855 52.3251 45.855 52.3954L47.1209 57.0372C47.2616 57.4591 46.9099 57.6701 47.0506 57.8108C47.1209 57.8811 47.1913 57.8108 47.2616 57.7404C47.4022 57.5998 47.5429 57.4591 47.7539 57.3185C47.9649 57.1778 48.1055 57.1075 48.3165 56.9668C48.4572 56.8965 48.6682 56.7558 48.5275 56.6855C48.3869 56.5448 47.8945 57.1075 47.5429 56.6855C47.4022 56.5448 47.3319 56.2635 47.3319 56.1229C47.1913 55.6306 47.2616 55.5602 47.3319 55.4196L48.3869 54.5756C48.5275 54.4349 48.5978 54.5053 49.1605 54.7866C49.3715 54.9273 49.4418 54.9976 49.5825 55.0679C49.8638 55.4196 49.4418 55.6306 49.5825 55.8415C49.6528 55.9119 49.7231 55.8415 49.7935 55.7712C49.9341 55.6306 50.1451 55.4899 50.3561 55.2789C50.7077 54.9976 50.9187 54.9273 51.0594 54.7163C51.1297 54.6459 51.2 54.6459 51.1297 54.5756ZM47.8945 54.435L47.1209 54.9976C47.0506 55.0679 46.9803 55.1383 46.9099 55.0679C46.8396 54.9976 46.8396 54.9273 46.8396 54.7866L46.488 53.4503C46.488 53.38 46.488 53.3097 46.488 53.3097C46.488 53.3097 46.488 53.3097 46.5583 53.3097L47.8242 54.013C47.8946 54.0833 47.9649 54.0833 48.0352 54.1536C48.1055 54.2943 48.0352 54.2943 47.8945 54.435Z" fill="white"/>
<path fill-rule="evenodd" clip-rule="evenodd" d="M27.3582 13.5737L27.2176 12.8704C27.1473 12.5891 26.8659 12.4484 26.5846 12.4484L26.022 12.6594L25.8813 12.0264C25.811 11.7451 25.5297 11.5341 25.2484 11.6045L24.5451 11.7451C24.2637 11.8154 24.0528 12.0968 24.1231 12.3781L24.2637 13.011L23.7011 13.1517C23.4198 13.222 23.2088 13.5034 23.2791 13.7847L23.4198 14.488C23.4901 14.7693 23.7714 14.91 24.0528 14.91L26.9363 14.277C27.2176 14.1363 27.4286 13.855 27.3582 13.5737ZM25.5297 14.488C25.1077 14.5583 24.7561 14.3473 24.6154 13.9253C24.5451 13.5034 24.7561 13.1517 25.178 13.011C25.6 12.9407 25.9517 13.1517 26.0923 13.5737C26.1626 13.9957 25.9517 14.3473 25.5297 14.488Z" fill="white"/>
<path fill-rule="evenodd" clip-rule="evenodd" d="M33.4066 11.8152H32.8439V11.1822C32.8439 10.9009 32.633 10.6899 32.3516 10.6899H31.6483C31.367 10.6899 31.156 10.9009 31.156 11.1822V11.8152H30.5231C30.2418 11.8152 30.0308 12.0262 30.0308 12.3075V13.0108C30.0308 13.2921 30.2418 13.5031 30.5231 13.5031H33.4769C33.7582 13.5031 33.9692 13.2921 33.9692 13.0108V12.3075C33.8989 12.0262 33.6879 11.8152 33.4066 11.8152ZM31.9297 13.5031C31.5077 13.5031 31.156 13.1515 31.156 12.7295C31.156 12.3075 31.5077 11.9559 31.9297 11.9559C32.3516 11.9559 32.7033 12.3075 32.7033 12.7295C32.633 13.1515 32.3516 13.5031 31.9297 13.5031Z" fill="white"/>
<path fill-rule="evenodd" clip-rule="evenodd" d="M40.1583 13.1517L39.5956 13.011L39.7363 12.3781C39.8066 12.0968 39.5956 11.8154 39.3143 11.7451L38.611 11.6045C38.3297 11.5341 38.0484 11.7451 37.978 12.0264L37.8374 12.6594L37.2747 12.5187C36.9934 12.4484 36.7121 12.6594 36.6418 12.9407L36.5011 13.644C36.4308 13.9253 36.6418 14.2066 36.9231 14.277L39.8066 14.9099C40.0879 14.9803 40.3693 14.7693 40.4396 14.488L40.5802 13.7847C40.5802 13.433 40.4396 13.222 40.1583 13.1517ZM39.244 13.9253C39.1736 14.3473 38.7517 14.5583 38.3297 14.488C37.9077 14.4176 37.6967 13.9957 37.7671 13.5737C37.8374 13.1517 38.2594 12.9407 38.6813 13.011C39.033 13.0814 39.3143 13.5034 39.244 13.9253Z" fill="white"/>
<path fill-rule="evenodd" clip-rule="evenodd" d="M45.0813 14.4175C44.8704 14.2768 44.5187 14.3472 44.378 14.6285L44.0264 15.1911L43.5341 14.9098C43.3231 14.7691 42.9715 14.8395 42.8308 15.1208L42.4791 15.7538C42.3385 15.9648 42.4088 16.3164 42.6901 16.4571L43.8154 17.1604C44.0264 17.301 44.378 17.2307 44.5187 16.9494L44.8704 16.3867C45.011 16.1054 45.1517 15.8944 45.1517 15.8944L45.7143 14.9098L45.0813 14.4175ZM43.8857 16.879C43.5341 16.6681 43.3934 16.2461 43.6044 15.8944C43.8154 15.5428 44.2374 15.4021 44.589 15.6131L43.8857 16.879Z" fill="white"/>
<path fill-rule="evenodd" clip-rule="evenodd" d="M21.4506 15.6131L21.0989 14.9801C20.9583 14.7691 20.6066 14.6285 20.3956 14.7691L19.9033 15.0505L19.5517 14.4878C19.411 14.2768 19.0593 14.1362 18.8484 14.2768L18.2154 14.7691L18.778 15.7538C18.778 15.7538 18.9187 15.9648 19.0593 16.2461L19.411 16.8087C19.5517 17.0197 19.9033 17.1604 20.1143 17.0197L21.2396 16.3164C21.5209 16.1757 21.5912 15.8241 21.4506 15.6131ZM20.044 16.879L19.2703 15.6131C19.622 15.4021 20.044 15.5428 20.255 15.8944C20.4659 16.2461 20.3956 16.6681 20.044 16.879Z" fill="white"/>
<path fill-rule="evenodd" clip-rule="evenodd" d="M15.0506 13.9958C14.9802 13.9254 14.9802 13.9254 14.9099 13.9958C14.8396 14.0661 14.8396 14.1364 14.8396 14.1364C14.8396 14.2068 14.7692 14.2771 14.6286 14.2068C13.644 13.9254 12.5187 13.5738 12.5187 13.5738C12.4484 13.5035 12.5187 13.3628 12.5187 13.0815C12.5187 12.8705 12.378 12.5188 12.0264 12.2375C11.7451 12.0265 10.9011 11.3936 10.0571 12.3782C9.77583 12.6595 9.56484 13.0112 9.28352 13.2925C9.07253 13.5738 9.0022 13.5738 8.79121 13.7848C8.72088 13.8551 8.72088 13.9254 8.79121 13.9254C9.0022 14.0661 9.21319 13.4331 9.84616 13.9958L12.3077 16.1057C13.011 16.7386 12.5187 16.8793 12.6593 17.0903C12.8 17.1606 12.8 17.0903 12.8703 17.0199C13.0813 16.809 13.222 16.5276 13.433 16.3166C13.5736 16.1057 13.7143 16.0353 13.7846 15.965C13.8549 15.8947 13.8549 15.8243 13.8549 15.754C13.644 15.543 13.5033 16.2463 12.9407 15.6837L11.956 14.9804C11.7451 14.8397 11.6747 14.7694 11.8857 14.5584C12.0967 14.3474 12.167 14.2771 12.5187 14.4177L13.7143 14.8397C14.1363 14.9804 14.6286 15.121 14.9099 14.7694C15.1209 14.5584 15.2615 14.2068 15.0506 13.9958ZM11.7451 14.2771C11.6044 14.4177 11.4637 14.5584 11.3231 14.4881L10.1978 13.5035C9.84616 13.2221 9.98682 13.0815 10.1275 12.9408C10.5495 12.5188 11.1121 12.5892 11.6747 13.0815C12.0264 13.2925 12.3077 13.5738 11.7451 14.2771Z" fill="white"/>
<path fill-rule="evenodd" clip-rule="evenodd" d="M26.7956 8.15827C26.7253 7.94729 26.5143 8.29893 26.1626 7.87696L23.2791 4.07915C23.1384 3.86816 23.1384 3.86816 23.0681 3.86816C22.9978 3.86816 22.9978 4.00882 22.9978 4.14948L22.8571 8.86157C22.8571 9.28355 22.5758 9.35388 22.5758 9.49454C22.5758 9.56487 22.7165 9.56487 22.7868 9.49454C22.9275 9.42421 23.1384 9.35388 23.2791 9.28355C23.4901 9.21322 23.6308 9.21322 23.8417 9.14289C23.9824 9.07256 24.1231 9.07256 24.1231 8.9319C24.0527 8.72091 23.4901 9.07256 23.3494 8.58025C23.2088 8.50992 23.2088 8.2286 23.2088 8.08794C23.2088 7.59564 23.2791 7.52531 23.4198 7.45498L24.545 7.10333C24.6857 7.033 24.756 7.10333 25.1077 7.59564C25.2483 7.7363 25.3187 7.87696 25.389 8.01761C25.5297 8.43959 25.1077 8.50992 25.178 8.72091C25.178 8.79124 25.2483 8.79124 25.389 8.72091C25.5297 8.65058 25.7406 8.58025 26.022 8.50992C26.3736 8.36926 26.5846 8.36926 26.7253 8.29893C26.7956 8.29893 26.8659 8.29893 26.7956 8.15827ZM24.1934 6.82201L23.4198 7.033C23.3494 7.033 23.2088 7.10333 23.2088 7.033C23.2088 6.96267 23.2088 6.82201 23.2088 6.75168V5.34509C23.2088 5.27476 23.2088 5.27476 23.2088 5.20443C23.2088 5.20443 23.2088 5.20443 23.2791 5.27476L24.1231 6.40003C24.1934 6.47036 24.2637 6.54069 24.2637 6.61102C24.4044 6.75168 24.3341 6.75168 24.1934 6.82201Z" fill="white"/>
<path fill-rule="evenodd" clip-rule="evenodd" d="M61.3978 30.6635C61.3978 30.5932 61.2572 30.5932 61.1165 30.5228L56.5451 29.3976C56.1231 29.2569 56.1231 28.9756 55.9824 28.9756C55.9121 28.9756 55.9121 29.0459 55.9121 29.1866C55.9121 29.3272 55.9824 29.5382 55.9824 29.6789C55.9824 29.8899 55.9824 30.0305 55.9824 30.2415C55.9824 30.3822 55.9824 30.5228 56.1231 30.5228C56.3341 30.5228 56.1231 29.8899 56.6857 29.8195C56.8264 29.8195 57.1077 29.8899 57.2484 29.8899C57.7407 29.9602 57.811 30.1009 57.811 30.1712L57.9517 31.2965C57.9517 31.4371 57.8813 31.5075 57.3187 31.7184C57.1077 31.7888 56.9671 31.8591 56.8264 31.8591C56.4044 31.9294 56.4044 31.5075 56.1934 31.5075C56.0528 31.5075 56.1231 31.5778 56.1231 31.7184C56.1231 31.8591 56.1934 32.0701 56.1934 32.3514C56.2638 32.7734 56.1934 32.914 56.2638 33.125C56.2638 33.2657 56.2638 33.336 56.4044 33.336C56.6154 33.336 56.3341 33.0547 56.8264 32.7734L61.1868 30.7338C61.3978 30.7338 61.3978 30.6635 61.3978 30.6635ZM59.9209 30.5932L58.655 31.2261C58.5846 31.2965 58.5143 31.2965 58.3737 31.2965C58.3033 31.2965 58.3033 31.2261 58.3033 31.0855L58.233 30.3118C58.233 30.1712 58.233 30.1009 58.3033 30.1009C58.3737 30.1009 58.5143 30.1009 58.5846 30.1712L59.9209 30.5228C59.9912 30.5228 59.9912 30.5228 59.9209 30.5932C59.9912 30.5932 59.9912 30.5932 59.9209 30.5932Z" fill="white"/>
<path fill-rule="evenodd" clip-rule="evenodd" d="M50.778 26.5143C50.5671 25.811 49.8638 25.6 49.0901 25.8813C48.3868 26.0923 48.0352 26.6549 48.2462 27.2176C48.5275 28.1319 49.4418 28.0615 49.9341 27.9209C50.7077 27.7099 50.989 27.0769 50.778 26.5143ZM49.7231 27.6396C49.1605 27.8505 48.6682 27.7802 48.4572 27.2879C48.2462 26.7956 48.9495 26.3736 49.4418 26.1626C49.9341 26.022 50.4264 26.022 50.6374 26.5143C50.778 26.8659 50.4967 27.3582 49.7231 27.6396Z" fill="white"/>
<path fill-rule="evenodd" clip-rule="evenodd" d="M49.7935 24.1936C49.7231 23.9826 49.5825 23.842 49.5121 23.631C49.4418 23.42 49.4418 23.42 49.3715 23.2793C49.3715 23.209 49.3011 23.209 49.3011 23.209C49.1605 23.2793 49.4418 23.4903 49.0902 23.7013L47.6132 24.4046C47.1912 24.6156 47.1912 24.3343 47.1209 24.4046C47.0506 24.4046 47.1209 24.4749 47.1209 24.5453C47.1912 24.6859 47.2616 24.8266 47.3319 24.9672C47.4022 25.1079 47.4022 25.1782 47.4022 25.1782C47.4022 25.2485 47.4726 25.2485 47.4726 25.2485C47.6132 25.1782 47.3319 24.9672 47.6836 24.8266L48.2462 24.5453C48.3869 24.4749 48.3869 24.4749 48.4572 24.6156C48.5275 24.7562 48.5275 24.8266 48.3869 24.9672L47.9649 25.4595C47.8242 25.6002 47.6836 25.8112 47.7539 26.0222C47.8242 26.1628 47.9649 26.3035 48.0352 26.2332C48.0352 26.2332 48.1055 26.1628 48.0352 26.1628L47.9649 26.0925C47.9649 26.0925 47.8945 26.0222 47.9649 25.9518C48.3165 25.5299 48.6682 25.1079 48.6682 25.1079C48.6682 25.1079 48.7385 25.1782 48.8792 25.1782C49.0198 25.2485 49.1605 25.2485 49.3715 25.1782C49.6528 25.1079 50.0748 24.8266 49.7935 24.1936ZM49.2308 24.8969C49.0198 24.9672 48.8792 25.0376 48.6682 24.6156C48.5978 24.5453 48.5978 24.4046 48.6682 24.4046L49.3011 24.1233C49.5121 24.0529 49.5121 24.1233 49.5825 24.1936C49.7231 24.4749 49.5825 24.7562 49.2308 24.8969Z" fill="white"/>
<path fill-rule="evenodd" clip-rule="evenodd" d="M51.5517 30.8042C51.411 30.8042 51.5517 31.1559 51.1297 31.0856L49.5121 30.9449C49.0901 30.8746 49.2308 30.6636 49.0901 30.6636C49.0198 30.6636 49.0198 30.7339 49.0198 30.7339C49.0198 30.8746 49.0198 31.0152 49.0198 31.2262C49.0198 31.3669 48.9495 31.4372 48.9495 31.5075C48.9495 31.5779 48.9495 31.5779 49.0198 31.5779C49.1605 31.5779 49.0198 31.2965 49.4418 31.2965L50.0747 31.3669C50.2154 31.3669 50.2154 31.3669 50.2154 31.5075C50.2154 31.6482 50.1451 31.7185 50.0044 31.7889L49.3715 31.9998C49.1605 32.0702 48.8792 32.1405 48.8792 32.4218C48.8792 32.5625 48.9495 32.7735 49.0198 32.7735C49.0198 32.7735 49.0901 32.7735 49.0901 32.7031V32.6328C49.0901 32.6328 49.0901 32.5625 49.1605 32.4921C49.6528 32.2812 50.2154 32.1405 50.2154 32.1405C50.2857 32.1405 50.2857 32.2108 50.3561 32.3515C50.4264 32.4218 50.5671 32.5625 50.778 32.5625C50.9187 32.5625 51.4813 32.5625 51.5517 31.9295C51.5517 31.7185 51.5517 31.5075 51.622 31.2965C51.5517 31.0152 51.5517 31.0152 51.5517 30.8042ZM51.3407 31.6482C51.3407 31.9295 51.0594 32.0702 50.6374 32.0702C50.4264 32.0702 50.2154 31.9998 50.2857 31.5779C50.2857 31.5075 50.2857 31.3669 50.4264 31.3669L51.1297 31.4372C51.3407 31.5075 51.3407 31.5779 51.3407 31.6482Z" fill="white"/>
<path fill-rule="evenodd" clip-rule="evenodd" d="M17.5824 22.857C17.5121 22.7866 17.5121 22.9976 17.2307 22.9976L14.9802 22.7163C14.8395 22.7163 14.8395 22.7163 14.8395 22.7163C14.8395 22.7163 14.8395 22.7866 14.9099 22.857L16.3165 24.6152C16.4571 24.7559 16.3868 24.8965 16.3868 24.9669C16.4571 24.9669 16.4571 24.9669 16.4571 24.8965C16.5275 24.8262 16.5275 24.7559 16.5978 24.6855C16.6681 24.6152 16.6681 24.5449 16.7384 24.4745C16.7384 24.4042 16.8088 24.3339 16.7384 24.3339C16.6681 24.2636 16.5275 24.6152 16.3165 24.4745C16.2461 24.4042 16.1758 24.3339 16.1055 24.2636C15.9648 24.1229 15.9648 24.0526 15.9648 23.9822L16.2461 23.4196C16.3165 23.3493 16.3165 23.3493 16.5978 23.4196C16.6681 23.4196 16.7384 23.4196 16.8088 23.4899C17.0198 23.5603 16.8791 23.7713 16.9494 23.8416C17.0198 23.8416 17.0198 23.8416 17.0198 23.7713C17.0901 23.7009 17.0901 23.5603 17.1604 23.4899C17.2307 23.2789 17.3011 23.2789 17.3714 23.1383C17.6527 22.9273 17.6527 22.9273 17.5824 22.857ZM16.1758 23.3493L15.9648 23.7009C15.9648 23.7713 15.8945 23.7713 15.8945 23.7713C15.8242 23.7713 15.8242 23.7009 15.8242 23.7009L15.4022 23.2086C15.4022 23.1383 15.4022 23.1383 15.4022 23.1383C15.4022 23.1383 15.4022 23.1383 15.4725 23.1383L16.1055 23.2086C16.1758 23.2086 16.1758 23.2086 16.2461 23.2086C16.2461 23.2789 16.2461 23.2789 16.1758 23.3493Z" fill="white"/>
<path d="M42.1978 22.646H41.9868H21.0286V34.1801C21.0286 39.3141 21.3099 43.5339 25.2483 47.4724C27.5692 49.7932 29.1165 50.9185 31.7187 52.6768L31.8593 52.8174L32.1407 53.0284L32.422 52.8174C33.1956 52.1845 33.8989 51.6218 34.6022 51.1295C36.0088 50.1449 37.2044 49.2306 38.7516 47.402C42.4791 42.9713 43.1121 39.5954 43.1121 34.1801V22.646H42.1978ZM37.978 46.8394C36.5011 48.5976 35.3758 49.4416 34.0396 50.3559C33.3363 50.8482 32.9143 51.1295 32.0703 51.8328C29.6088 50.1449 28.0615 49.0899 25.8813 46.8394C22.2242 43.1119 21.9429 39.2438 21.9429 34.1801V23.5603H42.1978V34.1801C42.1978 39.5251 41.5648 42.6196 37.978 46.8394Z" fill="white"/>
<path fill-rule="evenodd" clip-rule="evenodd" d="M54.2945 11.3229L53.9429 10.6899L53.5912 11.7449L53.8022 12.1669L54.2945 11.3229Z" fill="white"/>
<path fill-rule="evenodd" clip-rule="evenodd" d="M27.9912 7.10313C28.2022 7.94709 27.4285 7.7361 27.4989 8.01742C27.4989 8.15808 27.6395 8.15808 27.7099 8.15808C27.9209 8.08775 28.1318 8.01742 28.4835 7.94709C28.9055 7.87676 29.0461 7.87676 29.3274 7.80643C29.4681 7.7361 29.6088 7.7361 29.6088 7.59544C29.5384 7.38445 28.9055 7.7361 28.6945 6.89214L27.9912 3.65698C27.9208 3.30533 27.9912 3.235 28.2022 3.235L28.6945 3.16467C29.3274 3.02401 29.3274 3.86797 29.5384 3.79764C29.6791 3.79764 29.5384 3.51632 29.5384 3.44599L29.3274 2.81302C29.3274 2.74269 29.2571 2.67236 29.1868 2.67236C28.6241 2.81302 28.2725 2.88335 27.4285 3.09434C26.5846 3.30533 26.1626 3.30533 25.6703 3.44599C25.6 3.44599 25.6 3.58665 25.6 3.65698L25.7406 4.64159C25.7406 4.71192 25.7406 4.92291 25.8813 4.85258C26.1626 4.78225 25.7406 3.86797 26.4439 3.72731L26.9362 3.58665C27.1472 3.51632 27.2176 3.58665 27.2879 3.9383L27.9912 7.10313Z" fill="white"/>
<path fill-rule="evenodd" clip-rule="evenodd" d="M20.2549 9.84637C20.6769 10.62 19.9033 10.62 20.044 10.9013C20.1143 11.042 20.1846 10.9716 20.3253 10.9716C20.5363 10.831 20.6769 10.7607 21.0286 10.5497C21.3802 10.3387 21.5912 10.3387 21.8022 10.198C21.9429 10.1277 22.0835 10.0574 22.0132 9.9167C21.9429 9.70571 21.3802 10.2683 20.9582 9.49472L19.411 6.54087C19.2703 6.25955 19.2703 6.18922 19.4813 6.04856L19.9033 5.83757C20.4659 5.48593 20.6769 6.32988 20.8879 6.18922C21.0286 6.11889 20.8176 5.9079 20.7473 5.83757L20.3956 5.27494C20.3253 5.20461 20.3253 5.13428 20.2549 5.13428C19.7626 5.4156 19.411 5.62658 18.6374 5.97823C17.8637 6.40021 17.5121 6.54087 17.0198 6.75186C16.9495 6.82219 17.0198 6.89252 17.0198 6.96285L17.3714 7.87713C17.3714 7.94746 17.4418 8.15845 17.5824 8.08812C17.7934 7.94746 17.2308 7.17384 17.7934 6.89252L18.2154 6.68153C18.4264 6.54087 18.4967 6.54087 18.6374 6.89252L20.2549 9.84637Z" fill="white"/>
<path fill-rule="evenodd" clip-rule="evenodd" d="M28.9758 55.5605L28.2725 55.6309L29.0461 56.4045L29.5385 56.3342L28.9758 55.5605Z" fill="white"/>
<path d="M85.0286 5.62646C85.3099 5.69679 85.5209 5.69679 85.8022 5.69679C86.0132 5.69679 86.2242 5.62646 86.3649 5.62646C86.2242 7.45504 86.0836 10.8309 86.0132 13.644C85.9429 17.0902 83.9737 19.2001 80.5275 19.2001C76.7297 19.2001 74.9715 17.4418 74.9715 13.644C74.9715 12.4484 75.0418 11.5342 75.0418 10.6199C75.0418 8.50998 74.9715 6.75174 74.9011 5.62646C75.1824 5.69679 75.6044 5.69679 75.8857 5.69679C76.1671 5.69679 76.4484 5.62646 76.7297 5.62646C76.589 6.75174 76.5187 9.42427 76.5187 12.2375C76.5187 14.8397 76.5187 18.2858 80.8088 18.2858C85.0286 18.2858 85.0286 14.3473 85.0286 11.8858C85.0989 8.22866 85.0989 6.40009 85.0286 5.62646Z" fill="white"/>
<path d="M102.189 19.2001C99.2352 15.754 95.7187 12.0265 92.4132 8.51003C92.4132 9.21333 92.3429 10.4089 92.3429 12.4485C92.3429 14.1364 92.4132 18.2155 92.4836 18.9891C92.2726 18.9188 92.0616 18.9188 91.7803 18.9188C91.5693 18.9188 91.288 18.9891 91.077 18.9891C91.2176 18.0749 91.4989 13.1518 91.4989 10.6199C91.4989 8.15838 91.4989 6.32981 91.4286 5.41553H91.7099C94.8748 8.86168 99.1649 13.5034 101.486 15.8946C101.486 12.4485 101.486 8.65069 101.345 5.69685C101.556 5.76718 101.767 5.76718 101.978 5.76718C102.189 5.76718 102.4 5.69685 102.611 5.69685C102.47 6.82212 102.33 10.6903 102.33 12.1672C102.33 14.1364 102.4 18.4265 102.4 19.2705H102.189V19.2001Z" fill="white"/>
<path d="M107.815 10.6199C107.815 8.93196 107.745 7.31438 107.675 5.62646C108.026 5.69679 108.308 5.69679 108.589 5.69679C108.87 5.69679 109.222 5.62646 109.503 5.62646C109.433 7.31438 109.363 9.00229 109.363 10.6199V13.9254C109.363 15.6133 109.433 17.2309 109.503 18.9188C109.152 18.8484 108.87 18.8484 108.589 18.8484C108.308 18.8484 107.956 18.9188 107.675 18.9188C107.745 17.2309 107.815 15.6133 107.815 13.9254V10.6199Z" fill="white"/>
<path d="M112.809 5.62646C113.16 5.69679 113.512 5.69679 113.793 5.69679C114.145 5.69679 114.497 5.62646 114.778 5.62646C115.903 9.07262 117.591 13.1517 119.209 17.0199C120.615 13.9254 122.796 8.15833 123.569 5.62646C123.78 5.69679 124.062 5.69679 124.273 5.69679C124.484 5.69679 124.765 5.62646 124.976 5.62646C122.936 10.0572 121.108 14.488 119.42 18.9891C119.209 18.9188 118.998 18.9188 118.787 18.9188C118.576 18.9188 118.295 18.9891 118.154 18.9891C117.099 15.7539 114.708 10.0572 112.809 5.62646Z" fill="white"/>
<path d="M128.422 10.6199C128.422 8.93196 128.352 7.31438 128.281 5.62646C129.407 5.69679 130.602 5.69679 131.727 5.69679C132.853 5.69679 134.048 5.62646 135.174 5.62646C135.103 5.83745 135.103 6.04844 135.103 6.1891C135.103 6.40009 135.103 6.54075 135.174 6.75174C133.556 6.61108 132.571 6.47042 130.11 6.47042C130.11 7.31438 130.04 7.94734 130.04 8.93196C130.04 9.91658 130.04 10.9715 130.04 11.4638C132.29 11.4638 133.626 11.3935 134.752 11.2528C134.681 11.4638 134.681 11.6748 134.681 11.8858C134.681 12.0968 134.681 12.2375 134.752 12.4484C133.415 12.3078 130.954 12.3078 130.04 12.3078C130.04 12.8001 130.04 13.2221 130.04 15.121C130.04 16.5979 130.04 17.5122 130.11 18.0045C131.798 18.0045 134.119 18.0045 135.314 17.7232C135.244 17.9342 135.244 18.1451 135.244 18.3561C135.244 18.4968 135.244 18.7078 135.314 18.9188C134.189 18.8484 132.993 18.8484 131.868 18.8484C130.673 18.8484 129.547 18.9188 128.352 18.9188C128.422 17.2309 128.492 15.5429 128.492 13.9254V10.6199H128.422Z" fill="white"/>
<path d="M139.323 10.6199C139.323 8.93196 139.253 7.31438 139.182 5.62646C139.886 5.69679 140.659 5.69679 141.363 5.69679C142.066 5.69679 142.84 5.62646 143.543 5.62646C145.723 5.62646 147.552 6.40009 147.552 8.65064C147.552 11.1122 145.09 12.1671 143.613 12.3078C144.528 13.5034 147.763 17.6528 148.888 18.9188C148.536 18.8484 148.114 18.8484 147.692 18.8484C147.341 18.8484 146.919 18.9188 146.567 18.9188C145.793 17.7232 143.191 14.2067 141.574 12.5188H140.87V13.9254C140.87 15.6133 140.941 17.2309 141.011 18.9188C140.659 18.8484 140.378 18.8484 140.097 18.8484C139.815 18.8484 139.464 18.9188 139.182 18.9188C139.253 17.2309 139.323 15.6133 139.323 13.9254V10.6199ZM140.87 11.7451C141.222 11.8155 141.644 11.8155 142.136 11.8155C143.754 11.8155 145.793 11.1825 145.793 8.86163C145.793 6.82207 144.106 6.32976 142.769 6.32976C141.855 6.32976 141.292 6.40009 140.87 6.40009C140.8 7.80669 140.73 9.21328 140.73 10.6199V11.7451H140.87Z" fill="white"/>
<path d="M151.982 16.387C152.404 17.3012 153.389 18.4265 155.007 18.4265C156.695 18.4265 157.749 17.1606 157.749 15.6133C157.749 12.0265 151.631 13.5738 151.631 9.07267C151.631 6.89245 153.248 5.41553 155.851 5.41553C157.046 5.41553 157.96 5.69685 158.734 6.32981C158.523 6.75179 158.382 7.2441 158.242 7.94739H158.031C157.749 7.2441 157.187 6.11882 155.71 6.11882C154.233 6.11882 153.248 7.10344 153.248 8.51003C153.248 12.0968 159.297 10.6199 159.297 14.91C159.297 17.3012 157.538 19.2705 154.585 19.2705C152.967 19.2705 152.053 18.7078 151.42 18.1452C151.631 17.5826 151.701 17.1606 151.771 16.4573H151.982V16.387Z" fill="white"/>
<path d="M163.657 10.6199C163.657 8.93196 163.587 7.31438 163.516 5.62646C163.868 5.69679 164.149 5.69679 164.431 5.69679C164.712 5.69679 165.064 5.62646 165.345 5.62646C165.275 7.31438 165.204 9.00229 165.204 10.6199V13.9254C165.204 15.6133 165.275 17.2309 165.345 18.9188C164.993 18.8484 164.712 18.8484 164.431 18.8484C164.149 18.8484 163.798 18.9188 163.516 18.9188C163.587 17.2309 163.657 15.6133 163.657 13.9254V10.6199Z" fill="white"/>
<path d="M74.9714 30.3826C74.9714 28.6947 74.9011 27.0771 74.8307 25.3892C75.4637 25.4595 76.0967 25.4595 76.7297 25.4595C77.3626 25.4595 78.5582 25.3892 79.1209 25.3892C80.2461 25.3892 83.3407 25.4595 83.3407 28.6243C83.3407 32.0001 79.9648 32.7034 78.1363 32.7034C77.5736 32.7034 77.0813 32.7034 76.589 32.6331V33.6881C76.589 35.376 76.6593 36.9936 76.7297 38.6815C76.378 38.6111 76.0967 38.6111 75.8154 38.6111C75.534 38.6111 75.1824 38.6815 74.9011 38.6815C74.9714 36.9936 75.0417 35.376 75.0417 33.6881V30.3826H74.9714ZM76.589 31.7892C77.011 31.8595 77.5033 31.9298 77.9956 31.9298C79.5428 31.9298 81.5824 31.2969 81.5824 28.6947C81.5824 26.5144 80.3165 26.0221 78.3472 26.0221H76.589V31.7892Z" fill="white"/>
<path d="M92.6945 25.1079C96.9846 25.1079 99.9385 27.6398 99.9385 32.0002C99.9385 36.3607 96.9846 38.8925 92.6945 38.8925C88.4747 38.8925 85.4506 36.3607 85.4506 32.0002C85.5209 27.6398 88.4747 25.1079 92.6945 25.1079ZM92.6945 25.8112C89.6703 25.8112 87.3495 27.7101 87.3495 32.0002C87.3495 36.2903 89.6703 38.1892 92.6945 38.1892C95.7187 38.1892 98.0396 36.2903 98.0396 32.0002C98.0396 27.7101 95.789 25.8112 92.6945 25.8112Z" fill="white"/>
<path d="M103.174 30.3826C103.174 28.6947 103.103 27.0771 103.033 25.3892C103.385 25.4595 103.666 25.4595 103.947 25.4595C104.229 25.4595 104.58 25.3892 104.862 25.3892C104.791 27.0771 104.721 28.765 104.721 30.3826C104.721 33.6177 104.791 35.9386 104.791 37.8375C106.62 37.8375 108.167 37.8375 110.136 37.5562C110.066 37.7672 110.066 37.9782 110.066 38.1188C110.066 38.3298 110.136 38.5408 110.136 38.6815C108.941 38.6111 107.745 38.6111 106.549 38.6111C105.354 38.6111 104.158 38.6815 102.963 38.6815C103.033 36.9936 103.103 35.376 103.103 33.6881V30.3826H103.174Z" fill="white"/>
<path d="M113.653 30.3826C113.653 28.6947 113.582 27.0771 113.512 25.3892C113.864 25.4595 114.145 25.4595 114.426 25.4595C114.708 25.4595 115.059 25.3892 115.341 25.3892C115.27 27.0771 115.2 28.765 115.2 30.3826V33.6881C115.2 35.376 115.27 36.9936 115.341 38.6815C114.989 38.6111 114.708 38.6111 114.426 38.6111C114.145 38.6111 113.793 38.6815 113.512 38.6815C113.582 36.9936 113.653 35.376 113.653 33.6881V30.3826Z" fill="white"/>
<path d="M122.725 30.3826C122.725 29.0463 122.725 27.7101 122.655 26.3738C121.319 26.3738 119.631 26.4441 118.506 26.5848C118.576 26.3738 118.576 26.1628 118.576 25.9518C118.576 25.7408 118.506 25.6002 118.506 25.3188C120.193 25.3892 121.811 25.3892 123.499 25.3892C125.187 25.3892 126.804 25.3188 128.492 25.3188C128.422 25.5298 128.422 25.7408 128.422 25.9518C128.422 26.1628 128.492 26.3738 128.492 26.5848C127.437 26.4441 125.679 26.3738 124.343 26.3738C124.273 27.7101 124.273 29.0463 124.273 30.3826V33.6881C124.273 35.376 124.343 36.9936 124.413 38.6815C124.062 38.6112 123.78 38.6112 123.499 38.6112C123.218 38.6112 122.866 38.6815 122.585 38.6815C122.655 36.9936 122.725 35.376 122.725 33.6881V30.3826Z" fill="white"/>
<path d="M152.053 37.8376C151.56 38.2595 149.943 38.9628 148.044 38.9628C143.965 38.9628 141.011 36.431 141.011 32.0705C141.011 27.7101 143.965 25.1782 148.255 25.1782C149.943 25.1782 151.42 25.6002 152.475 26.0925C152.264 26.4442 152.123 27.2178 152.053 27.5694L151.912 27.6398C151.349 27.0771 150.083 25.9519 148.255 25.9519C145.231 25.9519 142.91 27.8508 142.91 32.1409C142.91 36.431 145.231 38.3299 148.255 38.3299C150.083 38.3299 151.42 37.2749 152.193 36.7123L152.264 36.7826L152.053 37.8376Z" fill="white"/>
<path d="M166.681 38.8925C163.727 35.4464 160.211 31.7189 156.905 28.2024C156.905 28.9057 156.835 30.1013 156.835 32.1409C156.835 33.8288 156.905 37.9079 156.976 38.6815C156.765 38.6112 156.554 38.6112 156.273 38.6112C156.062 38.6112 155.78 38.6112 155.569 38.6815C155.71 37.7672 155.991 32.8442 155.991 30.3123C155.991 27.8508 155.991 26.0222 155.921 25.1079H156.202C159.367 28.5541 163.657 33.1958 165.978 35.587C165.978 32.1409 165.978 28.3431 165.837 25.3892C166.048 25.4596 166.259 25.4596 166.47 25.4596C166.681 25.4596 166.892 25.3892 167.103 25.3892C166.963 26.5145 166.822 30.3826 166.822 31.8596C166.822 33.8288 166.892 38.1189 166.892 38.9629H166.681V38.8925Z" fill="white"/>
<path d="M171.393 30.3826C171.393 28.6947 171.323 27.0771 171.253 25.3892C171.604 25.4595 171.886 25.4595 172.167 25.4595C172.448 25.4595 172.8 25.3892 173.081 25.3892C173.011 27.0771 172.941 28.765 172.941 30.3826V33.6881C172.941 35.376 173.011 36.9936 173.081 38.6815C172.73 38.6111 172.448 38.6111 172.167 38.6111C171.886 38.6111 171.534 38.6815 171.253 38.6815C171.323 36.9936 171.393 35.376 171.393 33.6881V30.3826Z" fill="white"/>
<path d="M187.64 37.8376C187.147 38.2595 185.53 38.9628 183.631 38.9628C179.552 38.9628 176.598 36.431 176.598 32.0705C176.598 27.7101 179.552 25.1782 183.842 25.1782C185.53 25.1782 187.007 25.6002 188.062 26.0925C187.851 26.4442 187.71 27.2178 187.64 27.5694L187.499 27.6398C186.936 27.0771 185.67 25.9519 183.842 25.9519C180.818 25.9519 178.497 27.8508 178.497 32.1409C178.497 36.431 180.818 38.3299 183.842 38.3299C185.67 38.3299 187.007 37.2749 187.78 36.7123L187.851 36.7826L187.64 37.8376Z" fill="white"/>
<path d="M75.1824 50.0749C75.1824 48.387 75.1121 46.6991 75.0418 45.0815C76.0264 45.1519 77.011 45.1519 77.9253 45.1519C78.9099 45.1519 79.8945 45.0815 80.8088 45.0815C85.3099 45.0815 87.2088 47.4728 87.2088 51.4815C87.2088 56.6156 83.2 58.4442 80.1758 58.4442C79.3319 58.4442 78.4879 58.3739 77.5736 58.3739C76.7297 58.3739 75.8857 58.4442 74.9714 58.4442C75.0418 56.7563 75.1121 55.1387 75.1121 53.4508V50.0749H75.1824ZM76.7297 53.3804C76.7297 54.7167 76.8 56.1233 76.8703 57.4596C77.433 57.6002 78.4176 57.6706 79.4022 57.6706C82.2154 57.6706 85.3099 56.5453 85.3099 51.4815C85.3099 46.9804 82.989 45.9255 79.8242 45.9255C78.6989 45.9255 77.644 45.9958 76.8703 46.1365C76.8 47.4024 76.7297 48.7387 76.7297 50.1453V53.3804Z" fill="white"/>
<path d="M89.6 50.0046C89.6 48.3167 89.5297 46.6288 89.4594 45.0112C90.655 45.0816 91.7802 45.0816 92.9055 45.0816C94.1011 45.0816 95.2264 45.0112 96.3516 45.0112C96.2813 45.2222 96.2813 45.4332 96.2813 45.5739C96.2813 45.7849 96.2813 45.9958 96.3516 46.1365C94.7341 45.9958 93.7495 45.8552 91.2879 45.8552C91.2879 46.6991 91.2176 47.3321 91.2176 48.3167C91.2176 49.3013 91.2176 50.3563 91.2176 50.8486C93.4681 50.8486 94.8044 50.7783 95.9297 50.6376C95.8593 50.8486 95.8593 51.0596 95.8593 51.2706C95.8593 51.4816 95.8593 51.6925 95.9297 51.8332C94.5934 51.6925 92.1319 51.6222 91.2176 51.6222C91.2176 52.1145 91.2176 52.5365 91.2176 54.4354C91.2176 55.9123 91.2176 56.8266 91.2879 57.3189C92.9758 57.3189 95.2967 57.3189 96.4923 57.0376C96.422 57.1783 96.422 57.4596 96.422 57.6002C96.422 57.8112 96.422 58.0222 96.4923 58.1629C95.367 58.0925 94.1714 58.0925 93.0462 58.0925C91.8506 58.0925 90.7253 58.1629 89.5297 58.1629C89.6 56.475 89.6703 54.7871 89.6703 53.1695V50.0046H89.6Z" fill="white"/>
<path d="M109.011 45.0815C109.363 45.1519 109.714 45.1519 109.996 45.1519C110.347 45.1519 110.699 45.0815 110.98 45.0815C112.106 48.5277 113.723 52.6068 115.411 56.475C116.818 53.3804 118.998 47.6134 119.771 45.0815C119.982 45.1519 120.264 45.1519 120.475 45.1519C120.686 45.1519 120.967 45.0815 121.178 45.0815C119.138 49.5123 117.31 53.9431 115.622 58.4442C115.411 58.3738 115.2 58.3739 114.989 58.3739C114.778 58.3739 114.497 58.3738 114.356 58.4442C113.231 55.209 110.84 49.5123 109.011 45.0815Z" fill="white"/>
<path d="M135.947 50.0749C135.947 48.387 135.877 46.6991 135.807 45.0815C136.158 45.1519 136.44 45.1519 136.721 45.1519C137.002 45.1519 137.354 45.0815 137.635 45.0815C137.565 46.7695 137.495 48.4574 137.495 50.0749C137.495 53.3101 137.565 55.631 137.565 57.5299C139.393 57.5299 140.941 57.5299 142.91 57.2486C142.84 57.4596 142.84 57.6002 142.84 57.8112C142.84 58.0222 142.91 58.2332 142.91 58.3738C141.714 58.3035 140.519 58.3035 139.323 58.3035C138.127 58.3035 136.932 58.3738 135.736 58.3738C135.807 56.6859 135.877 55.0684 135.877 53.3804V50.0749H135.947Z" fill="white"/>
<path d="M167.455 58.6547C164.501 55.2086 160.985 51.4811 157.679 47.9646C157.679 48.6679 157.609 49.8635 157.609 51.9031C157.609 53.591 157.679 57.6701 157.749 58.4437C157.538 58.3734 157.328 58.3734 157.046 58.3734C156.835 58.3734 156.554 58.4437 156.343 58.4437C156.484 57.5295 156.765 52.6064 156.765 50.0745C156.765 47.613 156.765 45.7844 156.695 44.8701H156.976C160.141 48.3163 164.431 52.958 166.752 55.3492C166.752 51.9031 166.752 48.1053 166.611 45.1514C166.822 45.2218 167.033 45.2218 167.244 45.2218C167.455 45.2218 167.666 45.1514 167.877 45.1514C167.736 46.2767 167.596 50.1448 167.596 51.6218C167.596 53.591 167.666 57.8811 167.666 58.7251H167.455V58.6547Z" fill="white"/>
<path d="M181.873 57.5294C181.38 57.8811 179.763 58.6547 177.864 58.6547C173.785 58.6547 170.831 56.1229 170.831 51.7624C170.831 47.402 173.785 44.8701 178.075 44.8701C179.763 44.8701 181.24 45.2921 182.295 45.7844C182.084 46.136 181.943 46.9097 181.873 47.2613L181.732 47.3317C181.169 46.6987 179.903 45.6437 178.075 45.6437C175.051 45.6437 172.73 47.5426 172.73 51.8327C172.73 56.1229 175.051 58.0218 178.075 58.0218C179.903 58.0218 181.24 56.9668 182.013 56.4042L182.084 56.4745L181.873 57.5294Z" fill="white"/>
<path d="M185.248 50.0749C185.248 48.387 185.178 46.6991 185.108 45.0815C185.459 45.1519 185.741 45.1519 186.022 45.1519C186.303 45.1519 186.655 45.0815 186.936 45.0815C186.866 46.7695 186.796 48.4574 186.796 50.0749V53.3804C186.796 55.0684 186.866 56.6859 186.936 58.3738C186.585 58.3035 186.303 58.3035 186.022 58.3035C185.741 58.3035 185.389 58.3738 185.108 58.3738C185.178 56.6859 185.248 55.0684 185.248 53.3804V50.0749Z" fill="white"/>
<path d="M192.703 36.9935C192.703 36.1496 193.407 35.4463 194.251 35.4463C195.095 35.4463 195.798 36.1496 195.798 36.9935C195.798 37.8375 195.095 38.5408 194.251 38.5408C193.407 38.5408 192.703 37.8375 192.703 36.9935Z" fill="white"/>
<path d="M197.978 33.336L195.587 27.569L193.125 33.336C192.281 35.3053 191.578 37.2745 191.226 38.5404C190.945 38.4701 190.734 38.4701 190.523 38.4701C190.312 38.4701 190.031 38.5404 189.82 38.5404C191.859 34.0393 193.899 29.5382 195.868 24.9668H196.22C198.119 29.4679 201.002 36.5009 202.057 38.5404C201.706 38.4701 201.354 38.4701 201.073 38.4701C200.721 38.4701 200.369 38.5404 200.018 38.5404C199.596 37.2042 198.681 35.0239 197.978 33.336Z" fill="white"/>
<path d="M192.774 56.7562C192.774 55.9123 193.477 55.209 194.321 55.209C195.165 55.209 195.868 55.9123 195.868 56.7562C195.868 57.6002 195.165 58.3035 194.321 58.3035C193.477 58.2332 192.774 57.6002 192.774 56.7562Z" fill="white"/>
<path d="M198.048 53.0284L195.657 47.2614L193.196 53.0284C192.352 54.9977 191.648 56.9669 191.297 58.2328C191.015 58.1625 190.804 58.1625 190.593 58.1625C190.382 58.1625 190.101 58.2328 189.89 58.2328C191.93 53.7317 193.969 49.2306 195.938 44.6592H196.29C198.189 49.1603 201.073 56.1933 202.127 58.2328C201.776 58.1625 201.424 58.1625 201.073 58.1625C200.721 58.1625 200.369 58.2328 200.018 58.2328C199.666 56.8966 198.681 54.7867 198.048 53.0284Z" fill="white"/>
<path d="M124.062 56.7562C124.062 55.9123 124.765 55.209 125.609 55.209C126.453 55.209 127.156 55.9123 127.156 56.7562C127.156 57.6002 126.453 58.3035 125.609 58.3035C124.765 58.2332 124.062 57.6002 124.062 56.7562Z" fill="white"/>
<path d="M129.336 53.0284L126.945 47.2614L124.484 53.0284C123.64 54.9977 122.936 56.9669 122.585 58.2328C122.303 58.1625 122.092 58.1625 121.881 58.1625C121.67 58.1625 121.389 58.2328 121.178 58.2328C123.218 53.7317 125.257 49.2306 127.226 44.6592H127.578C129.477 49.1603 132.361 56.1933 133.415 58.2328C133.064 58.1625 132.712 58.1625 132.361 58.1625C132.009 58.1625 131.657 58.2328 131.306 58.2328C130.954 56.8966 130.04 54.7867 129.336 53.0284Z" fill="white"/>
<path d="M172.87 10.8308C172.87 9.49456 172.87 8.1583 172.8 6.82204C171.464 6.82204 169.776 6.89236 168.651 7.03302C168.721 6.82204 168.721 6.61105 168.721 6.40006C168.721 6.18907 168.651 6.04841 168.651 5.76709C170.339 5.83742 171.956 5.83742 173.644 5.83742C175.332 5.83742 176.95 5.76709 178.637 5.76709C178.567 5.97808 178.567 6.18907 178.567 6.40006C178.567 6.61105 178.637 6.82204 178.637 7.03302C177.582 6.89236 175.824 6.82204 174.488 6.82204C174.418 8.1583 174.418 9.49456 174.418 10.8308V14.1363C174.418 15.8242 174.488 17.4418 174.558 19.1297C174.207 19.0594 173.925 19.0594 173.644 19.0594C173.363 19.0594 173.011 19.1297 172.73 19.1297C172.8 17.4418 172.87 15.7539 172.87 14.1363V10.8308Z" fill="white"/>
<path d="M196.22 10.8308C196.22 9.49456 196.22 8.1583 196.15 6.82204C194.813 6.82204 193.125 6.89236 192 7.03302C192.07 6.82204 192.07 6.61105 192.07 6.40006C192.07 6.18907 192 6.04841 192 5.76709C193.688 5.83742 195.306 5.83742 196.993 5.83742C198.681 5.83742 200.299 5.76709 201.987 5.76709C201.917 5.97808 201.917 6.18907 201.917 6.40006C201.917 6.61105 201.987 6.82204 201.987 7.03302C200.932 6.89236 199.174 6.82204 197.837 6.82204C197.767 8.1583 197.767 9.49456 197.767 10.8308V14.1363C197.767 15.8242 197.837 17.4418 197.908 19.1297C197.556 19.0594 197.275 19.0594 196.993 19.0594C196.712 19.0594 196.361 19.1297 196.079 19.1297C196.15 17.4418 196.22 15.7539 196.22 14.1363V10.8308Z" fill="white"/>
<path fill-rule="evenodd" clip-rule="evenodd" d="M151.068 43.9559L148.607 41.4944C148.396 41.2834 148.114 41.002 147.833 40.7911C147.763 40.7207 147.692 40.7207 147.552 40.6504C147.2 40.5801 146.848 40.7207 146.778 41.0724C146.708 41.2834 146.708 41.424 146.778 41.5647C146.919 41.7757 147.059 41.846 147.27 41.9867L150.365 43.8856H151.068V43.9559ZM147.763 45.9955H149.24L151.209 46.0658C151.771 46.1361 152.404 46.1361 152.967 46.2768C152.967 46.0658 152.897 45.8548 152.897 45.7141C152.897 45.5031 152.967 45.3625 152.967 45.1515H146.004V58.4438H153.108C153.108 58.2328 153.037 58.0218 153.037 57.8812C153.037 57.6702 153.108 57.5295 153.108 57.3185C152.475 57.3889 151.912 57.4592 151.279 57.5295C150.084 57.5998 148.958 57.6702 147.763 57.5998V51.9031H150.787C151.349 51.9031 151.912 51.9735 152.545 51.9735C152.545 51.7625 152.475 51.5515 152.475 51.4108C152.475 51.1998 152.545 51.0592 152.545 50.9185C151.982 50.9185 151.42 50.9889 150.787 50.9889H147.763V45.9955Z" fill="white"/>
<path fill-rule="evenodd" clip-rule="evenodd" d="M136.299 24.3343L133.837 21.8728C133.626 21.6618 133.345 21.3805 133.064 21.1695C132.993 21.0991 132.923 21.0991 132.782 21.0288C132.431 20.9585 132.079 21.0991 132.009 21.4508C131.938 21.6618 131.938 21.8024 132.009 22.0134C132.149 22.2244 132.29 22.2947 132.501 22.4354L135.596 24.3343H136.299ZM133.064 26.3739H134.541L136.51 26.4442C137.073 26.4442 137.706 26.5145 138.268 26.6552C138.268 26.4442 138.198 26.2332 138.198 26.0925C138.198 25.8816 138.268 25.7409 138.268 25.5299H131.305V38.6816H138.338C138.338 38.4706 138.268 38.2596 138.268 38.1189C138.268 37.9079 138.338 37.7673 138.338 37.5563C137.706 37.6266 137.143 37.6969 136.51 37.6969C135.314 37.7673 134.189 37.8376 132.993 37.7673V32.0706H136.018C136.58 32.0706 137.213 32.1409 137.776 32.1409C137.776 31.9299 137.706 31.7189 137.706 31.5783C137.706 31.3673 137.776 31.2266 137.776 31.086C137.213 31.086 136.651 31.1563 136.018 31.1563H132.993V26.3739H133.064Z" fill="white"/>
<path d="M182.295 17.3716C182.295 16.5276 182.998 15.8243 183.842 15.8243C184.686 15.8243 185.389 16.5276 185.389 17.3716C185.389 18.2155 184.686 18.9188 183.842 18.9188C182.927 18.8485 182.295 18.2155 182.295 17.3716ZM185.108 5.41553H185.53L191.086 18.2859L191.437 18.9892C191.086 18.9188 190.734 18.9188 190.453 18.9188C190.101 18.9188 189.749 18.9188 189.398 18.9892L189.257 18.4265L188.343 16.1056L187.358 13.7848L184.897 7.9474L182.365 13.7848C181.662 15.4727 180.958 17.2309 180.466 18.9892C180.255 18.9188 180.044 18.9188 179.763 18.9188C179.552 18.9188 179.27 18.9188 179.059 18.9892L185.108 5.41553Z" fill="white"/>
</svg>
